/* XPM */
static char *collectible[] = {
/* columns rows colors chars-per-pixel */
"60 60 162 2 ",
"   c #020202",
".  c #070807",
"X  c #060708",
"o  c #070809",
"O  c #0B0C0C",
"+  c #10100F",
"@  c #0E0F11",
"#  c #0F1011",
"$  c #131314",
"%  c #151619",
"&  c #17181B",
"*  c #1B1B1C",
"=  c #1C1E22",
"-  c #1F2024",
";  c #232324",
":  c #24262A",
">  c #26292C",
",  c #2B2B2C",
"<  c #252E30",
"1  c #2B2E32",
"2  c #2D3136",
"3  c #2F3238",
"4  c #343434",
"5  c #31343B",
"6  c #35393F",
"7  c #3A3B3B",
"8  c #373A41",
"9  c #3B3D43",
"0  c #3C3F48",
"q  c #3E4042",
"w  c #3E424A",
"e  c #3E4B4D",
"r  c #434344",
"t  c #42454D",
"y  c #474848",
"u  c #4B4C4C",
"i  c #434750",
"p  c #464A53",
"a  c #484D57",
"s  c #4A4E58",
"d  c #455457",
"f  c #4E535D",
"g  c #545454",
"h  c #53565C",
"j  c #575858",
"k  c #5A5B5B",
"l  c #515661",
"z  c #535A64",
"x  c #5F5F60",
"c  c #575C68",
"v  c #595E6A",
"b  c #5F6060",
"n  c #5B616E",
"m  c #5E6471",
"M  c #5D7376",
"N  c #646464",
"B  c #676768",
"V  c #676869",
"C  c #6A6B6C",
"Z  c #606675",
"A  c #626876",
"S  c #6E6F70",
"D  c #737475",
"F  c #777878",
"G  c #7B7B7B",
"H  c #7F7F80",
"J  c #6D868A",
"K  c #759094",
"L  c #838384",
"P  c #868788",
"I  c #878889",
"U  c #8A8A8B",
"Y  c #8E8F90",
"T  c #8F9090",
"R  c #939494",
"E  c #979798",
"W  c #9A9B9B",
"Q  c #9E9FA0",
"!  c #84A3A7",
"~  c #9FA0A1",
"^  c #A3A4A5",
"/  c #A7A8A8",
"(  c #AAABAB",
")  c #AEAFB0",
"_  c #AFB0B1",
"`  c #B2B3B4",
"'  c #B6B7B8",
"]  c #B7B8B9",
"[  c #BBBBBC",
"{  c #BEBFC0",
"}  c #A0C6CC",
"|  c #BFC0C2",
" . c #B0DADF",
".. c #B6E3E9",
"X. c #B9E7ED",
"o. c #BAE8ED",
"O. c #C2C3C4",
"+. c #C6C7C8",
"@. c #C7C8CA",
"#. c #CCCDCF",
"$. c #CCCDCD",
"%. c #CACACC",
"&. c #CECED0",
"*. c #CECFD1",
"=. c #CFD0D1",
"-. c #D2D2D3",
";. c #D0D1D3",
":. c #D2D3D5",
">. c #D5D5D5",
",. c #D5D5D6",
"<. c #D7D7D7",
"1. c #D5D6D6",
"2. c #D2D3D4",
"3. c #D5D6D8",
"4. c #D6D7D9",
"5. c #D5D6D8",
"6. c #D7D8D9",
"7. c #D8D8D9",
"8. c #D9DADA",
"9. c #D9D9DA",
"0. c #DFDFDF",
"q. c #DCDDDE",
"w. c #DADBDC",
"e. c #DDDEE0",
"r. c #DEDEE0",
"t. c #DDDEE0",
"y. c #DFE0E2",
"u. c #E1E2E3",
"i. c #E0E0E1",
"p. c #E2E2E4",
"a. c #E2E3E5",
"s. c #E5E6E7",
"d. c #E4E4E4",
"f. c #E2E3E4",
"g. c #E5E6E8",
"h. c #E7E7E9",
"j. c #E6E7E9",
"k. c #E7E8EA",
"l. c #E7E8EA",
"z. c #E9EAEC",
"x. c #EAEBED",
"c. c #EBECEE",
"v. c #ECEDEF",
"b. c #EFEFEF",
"n. c #ECEDEF",
"m. c #EDEEF0",
"M. c #EEEFF1",
"N. c #EFEFF0",
"B. c #EDEEF0",
"V. c #EFF0F2",
"C. c #EFF0F2",
"Z. c #F0F1F3",
"A. c #F1F2F3",
"S. c #F0F0F0",
"D. c #F2F3F5",
"F. c #F1F2F4",
"G. c #FBFBFB",
"H. c #FAFAFA",
"J. c #F8F8F8",
"K. c #FFFFFF",
"L. c #FCFCFC",
"P. c #FFFFFF",
/* pixels */
"K.K.K.K.K.K.K.K.K.K.K.K.K.K.K.K.K.K.K.K.K.G.8./ G u , * O . . O * , u G / 8.G.K.K.K.K.K.K.K.K.K.K.K.K.K.K.K.K.K.K.K.K.K.",
"K.K.K.K.K.K.K.K.K.K.K.K.K.K.K.K.K.K.G.<.R g ; O   . O $ * = = * $ O .   O ; g R <.G.K.K.K.K.K.K.K.K.K.K.K.K.K.K.K.K.K.K.",
"K.K.K.K.K.K.K.K.K.K.K.K.K.K.K.K.D.' k *     o 2 t f c v n m m n v c s 9 > .     * k ' D.K.K.K.K.K.K.K.K.K.K.K.K.K.K.K.K.",
"K.K.K.K.K.K.K.K.K.K.K.K.K.K.G.' u O O 9 :   5 A A A A A A A A A A A A A m 2   ; 7 O O u ' G.K.K.K.K.K.K.K.K.K.K.K.K.K.K.",
"K.K.K.K.K.K.K.K.K.K.K.K.K.<.N O O g ` ;., @ c A A A A A A m A A A A A A A c @ : ' W y O O B <.K.K.K.K.K.K.K.K.K.K.K.K.K.",
"K.K.K.K.K.K.K.K.K.K.K.G.^ :   r ) z.c.R O . 3 f m A A A m m A A A A A m f 3 . O E 8.;.W 7   : ^ G.K.K.K.K.K.K.K.K.K.K.K.",
"K.K.K.K.K.K.K.K.K.K.v.F O * U a.D.$.k O $ ;   . ; t v A A A A A A v t ; o   * O O B O.8.%.G $ O G v.K.K.K.K.K.K.K.K.K.K.",
"K.K.K.K.K.K.K.K.K.d.j   7 [ S.l.W :   r ' =.U 9 O   $ 5 f m m f 5 %   O r Y *./ 4   4 W ;.<.^ 4   j d.K.K.K.K.K.K.K.K.K.",
"K.K.K.K.K.K.K.K.i.y   j 3.D.%.j . $ G q.V.m.V.a.` N *   o : : o   * B ` a.V.m.V.<.C O O N [ 8.[ u   y q.K.K.K.K.K.K.K.K.",
"K.K.K.K.K.K.K.d.y   B a.l.R ;   r ] m.m.v.v.v.m.V.c.$.U 7 . . 7 U $.c.V.m.v.v.v.m.z./ 4   , R ;.%.k   y d.K.K.K.K.K.K.K.",
"K.K.K.K.K.K.S.j   B d.@.g . % L e.V.v.v.v.v.v.v.c.v.m.S.:.: : :.S.m.v.v.v.v.v.v.v.m.V.3.S O O k [ $.j   j S.K.K.K.K.K.K.",
"K.K.K.K.K.K.G   7 +.R ;   y [ m.m.v.v.v.v.v.v.v.v.v.v.m.e., , e.m.v.v.v.v.v.v.v.v.v.v.m.z.( 4   , R ' 4   G G.K.K.K.K.K.",
"K.K.K.K.K./ O   O : . * P i.V.v.v.v.v.v.v.v.v.v.v.v.v.v.d.j j d.v.v.v.v.v.v.v.v.v.v.v.v.v.V.3.D O O , O   O / K.K.K.K.K.",
"K.K.K.K.8.,   % *   , [ m.m.v.v.v.v.v.v.v.v.v.v.v.v.v.v.v.i.a.v.v.v.v.v.v.v.v.v.v.v.v.v.v.v.m.c.( ;   % $   , 8.K.K.K.K.",
"K.K.K.G.B   5 n l o y z.m.v.v.v.v.v.v.v.v.v.v.v.v.v.v.v.v.%.%.v.v.v.v.v.v.v.v.v.v.v.v.v.v.v.v.m.z.y . p f 1   B G.K.K.K.",
"K.K.K.[ O * n A v @ 4 y.m.v.v.v.v.v.v.v.v.v.v.v.v.v.v.m.a.9 9 a.m.v.v.v.v.v.v.v.v.v.v.v.v.v.v.m.i.4 O f z f & O ' K.K.K.",
"K.K.D.g   p A A n % ; 3.m.v.v.v.v.v.v.v.v.v.v.v.v.v.v.m.q., , q.m.v.v.v.v.v.v.v.v.v.v.v.v.v.v.m.3.; % f z z w   g D.K.K.",
"K.K.[ O ; m A m m - $ @.m.v.v.v.v.v.v.v.v.v.v.v.v.v.v.m.y., , y.m.v.v.v.v.v.v.v.v.v.v.v.v.v.v.m.%.$ = c z z l = O [ K.K.",
"K.K.N   p A m m A < O ] V.v.v.v.v.v.v.v.v.v.v.v.v.v.m.c.^ $ $ ^ z.m.v.c.v.v.v.v.v.v.v.v.v.v.v.V.' O > m z z z w   N K.K.",
"K.8.* & n A m m A 5 . ^ S.v.v.v.v.v.v.v.v.v.v.v.v.V.q.D O . . O D q.V.v.v.v.v.v.v.v.v.v.v.v.v.S.^ . 5 A c z z f % * 8.K.",
"K.W   8 A A A Z A 9   R S.v.v.v.v.v.v.v.v.v.v.m.m.{ r   % p p %   r { m.m.v.v.v.v.v.v.v.v.v.v.S.R   9 A n z z z 3   W K.",
"G.g . f A A A A A i   F V.S.m.v.v.v.v.v.v.v.m.l.R *   > c A A c >   * R l.m.v.v.v.v.v.v.v.m.S.D.G   i A m c z z p . g G.",
"q.: & n A A A A A i   * B ^ :.z.S.m.v.v.v.V.<.N . O 9 n A A A A m 9 O O N <.V.v.v.v.m.S.c.3.( S ;   t A Z c z z f % : q.",
"` O 2 A A A A A c * . * .   ; g R @.g.V.m.` 4   * f A A A A A A A A f *   4 ` m.S.l.$.W k : .   * . & c A v z z z > O ` ",
"L   w A A A A m >   V ;./ B 4 O   $ r L G $   1 v A A m l t t l m A A v 1   $ G U y *   . , N ^ $.V   > m n z z z 6   L ",
"g . f A A A A 8   r w.V.S.m.q.' G 7 $     @ t m A A n 3 O     O 3 n A A m t @     O 7 F ` w.v.S.V.w.r   8 m z z z t   g ",
"4 O c A A A p . : O.V.v.v.v.m.V.V.a.O.B   3 A A A m 1   > M M >   1 m A A A 3   B O.a.m.V.m.v.v.v.V.O.: . i c z z a O 7 ",
"; O s A A l $ O ^ m.v.v.v.v.v.v.v.m.D.O.$ = m A A f o 2 } X.X.} 2 o f A A m = $ O.D.m.v.v.v.v.v.v.v.m.^ @ $ p z z w . ; ",
"$   $ f n -   G c.v.v.v.v.v.v.v.v.v.m.d.r o l A A 9   J o.....o.J   9 A A h o r d.v.v.v.v.v.v.v.v.v.v.c.G   * f i $   $ ",
"$ O . % ;   g a.m.v.v.v.v.v.v.v.v.v.v.S.L   9 A A 8   K o.....o.K   8 A A 9   L V.v.v.v.v.v.v.v.v.v.v.m.a.g   = $ . O $ ",
"O 4 D O   7 ;.m.v.v.v.v.v.v.v.v.v.v.v.V.{ $ = m A a   e  .o.o. .e   p A m = $ { V.v.v.v.v.v.v.v.v.v.v.v.m.;.4   O N , O ",
"$ 4 y.U   D V.v.v.v.v.v.v.v.v.v.v.v.v.m.a.9 o l A n ;   d ! ! d   - n A l o q a.m.v.v.v.v.v.v.v.v.v.v.v.v.l.y O R O.4 $ ",
"* , q.$.$ q d.m.v.v.v.v.v.v.v.v.v.v.v.v.V.H   9 A A z =   . .   = z A A 9   H V.v.v.v.v.v.v.v.v.v.v.v.v.m.:.; , %.O.: * ",
"4 * *.g.q $ %.m.v.v.v.v.v.v.v.v.v.v.v.v.V.[ O - m A A n t 2 2 t n A A m - O [ V.v.v.v.v.v.v.v.v.v.v.v.v.V.) . j <.' & 4 ",
"j O ' D.D   Q S.v.v.v.v.v.v.v.v.v.v.v.v.m.i.7 O l A A A A A A A A A A l O 7 a.m.v.v.v.v.v.v.v.v.v.v.v.v.V.H   L 8.^ O g ",
"L . W D.' 4 ( V.v.v.v.v.v.v.v.v.v.v.v.v.v.V.G   9 A A A A A m m A A A 9   G V.v.v.v.v.v.v.v.v.v.v.v.v.v.z.u O ( 8.U   L ",
"' O C m.z.q.z.m.v.v.v.v.v.v.v.v.v.v.v.v.v.V.] O @ : > > : : : : : : : @ O ` S.v.v.v.v.v.v.v.v.v.v.v.v.m.<.; , O.<.N O ` ",
"i.: 7 a.m.z.w.z.v.v.v.v.v.v.v.v.v.v.v.v.v.m.R O O $ $ $ $ $ @ O $ $ $ O   G c.m.v.v.v.v.v.v.v.v.v.v.v.V.` O g ;.%.4 ; q.",
"G.j $ | D.' , ^ V.v.v.v.v.v.v.v.v.v.v.v.V.' * * ^ O.| O.O.O.O.| O.| O.` , O ^ V.v.v.v.v.v.v.v.v.v.v.v.V.L   L 3.( O g G.",
"K.W   L D.` . k v.v.v.v.v.v.v.v.v.v.v.m.:.4 . R m.V.m.m.V.V.m.m.V.m.V.S.( $ ; O.V.v.v.v.v.v.v.v.v.v.v.z.g O / 8.G   W K.",
"K.w.* 7 i.8.: , q.m.v.v.v.v.v.v.v.v.m.a.j   C z.m.v.v.v.v.v.v.v.v.v.v.v.m.U . q 6.m.v.v.v.v.v.v.v.v.m.6.: : O.%.4 * 8.K.",
"K.K.B . / m.g O [ D.m.v.v.v.v.v.v.v.c.G   y q.m.v.v.v.v.v.v.v.v.v.v.v.v.m.g.N   B g.m.v.v.v.v.v.v.m.D.] O g <.W . N K.K.",
"K.K.[ O u z.I   g ( <.c.S.m.v.v.v.m.^ O , @.V.v.v.v.v.v.v.v.v.v.v.v.v.v.v.m.3.7 . U m.v.v.v.m.S.c.6.) g   G ;.r O [ K.K.",
"K.K.G.g O ^ x     . : j E %.g.V.D.| ; $ ( V.v.v.v.v.v.v.v.v.v.v.v.v.v.v.v.v.V.{ ; $ _ D.V.l.$.W b , O     y T O g D.K.K.",
"K.K.K.[ @ : $ $ w < $     * y L ) 7 . U v.v.v.v.v.v.v.v.v.v.v.v.v.v.v.v.v.v.v.m.W O 1 ( U u *     # : 6 % O * O ' K.K.K.",
"K.K.K.G.B     < A A v s 5 * .   O   N g.m.v.v.v.v.v.v.v.v.v.v.v.v.v.v.v.v.v.v.v.z.F   O   . & 3 p z z c 1     B G.K.K.K.",
"K.K.K.K.8.,   5 A A A A A n f 9 *   L V.v.v.v.v.v.v.v.v.v.v.v.v.v.v.v.v.v.v.v.v.V.R   % 8 f n A Z c z c 5   , 8.K.K.K.K.",
"K.K.K.K.K./ O & c A A A A A A A l O : $.m.v.v.v.v.v.v.v.v.v.v.v.v.v.v.v.v.v.v.m.<.4 O f A A A A c z z s % O / K.K.K.K.K.",
"K.K.K.K.K.K.G   : n A A A A m m A 6   C c.v.v.v.v.v.v.v.v.v.v.v.v.v.v.v.v.v.v.m.G   2 Z A A A n z z f -   G G.K.K.K.K.K.",
"K.K.K.K.K.K.S.j   1 n A A A A A A c % $ [ m.v.v.v.v.v.v.v.v.v.v.v.v.v.v.v.v.m.@.* @ z A A A n z z f :   j S.K.K.K.K.K.K.",
"K.K.K.K.K.K.K.d.y   1 n A A A A A A w   j l.v.v.v.v.v.v.v.v.v.v.v.v.v.v.v.v.z.B   8 A A A n z z f :   y d.K.K.K.K.K.K.K.",
"K.K.K.K.K.K.K.K.i.y   : c A A A A A n = O / V.v.v.v.v.v.v.v.v.v.v.v.v.v.v.V.' $ % v A A n z z s -   y i.K.K.K.K.K.K.K.K.",
"K.K.K.K.K.K.K.K.K.d.j   * f A A A A A p   r i.S.V.V.V.V.V.V.V.V.V.m.m.m.V.g.g   w A m n z z t $   j d.K.K.K.K.K.K.K.K.K.",
"K.K.K.K.K.K.K.K.K.K.S.G O O 8 n A A A m > . L { [ { | O.O.O.O.O.O.O.+.@.%.W O - n m c z f 3 O O G S.K.K.K.K.K.K.K.K.K.K.",
"K.K.K.K.K.K.K.K.K.K.K.G./ ,   = p m A m 8   . O O O O O O O O O $ $ $ $ $ O   5 v c l w &   : ^ G.K.K.K.K.K.K.K.K.K.K.K.",
"K.K.K.K.K.K.K.K.K.K.K.K.K.8.B O   : 8 = o $ g b k k k j j g g g g g g u u y $ . & 1 =   O B 8.K.K.K.K.K.K.K.K.K.K.K.K.K.",
"K.K.K.K.K.K.K.K.K.K.K.K.K.K.G.[ g O     O G a.V.S.V.m.v.v.v.v.v.v.v.m.v.d.;.F O     O u ' G.K.K.K.K.K.K.K.K.K.K.K.K.K.K.",
"K.K.K.K.K.K.K.K.K.K.K.K.K.K.K.K.D.' N *   $ r D ~ | a.m.v.v.g.a.q.*.] R B 7 $ . * k ' D.K.K.K.K.K.K.K.K.K.K.K.K.K.K.K.K.",
"K.K.K.K.K.K.K.K.K.K.K.K.K.K.K.K.K.K.K.8.R g ; O . O G D.z.L 7 7 , * O   . * u R <.G.K.K.K.K.K.K.K.K.K.K.K.K.K.K.K.K.K.K.",
"K.K.K.K.K.K.K.K.K.K.K.K.K.K.K.K.K.K.K.K.K.G.q.( G g / K.D.g   O $ , g G ( 8.G.K.K.K.K.K.K.K.K.K.K.K.K.K.K.K.K.K.K.K.K.K."
};
