/* XPM */
static char *collectible[] = {
/* columns rows colors chars-per-pixel */
"60 60 221 2 ",
"   c #1E1A13",
".  c #231D15",
"X  c #2A1E13",
"o  c #2B2216",
"O  c #2B2519",
"+  c #262117",
"@  c #332B1D",
"#  c #382717",
"$  c #3B301F",
"%  c #362E20",
"&  c #3C3322",
"*  c #432D19",
"=  c #482F1A",
"-  c #4C341D",
";  c #47341E",
":  c #50371E",
">  c #443924",
",  c #463924",
"<  c #533D22",
"1  c #583E23",
"2  c #4D402A",
"3  c #5B4324",
"4  c #58472A",
"5  c #554A33",
"6  c #5B4D33",
"7  c #5E5138",
"8  c #634C2C",
"9  c #664B28",
"0  c #6C532C",
"q  c #624E30",
"w  c #645234",
"e  c #6B5533",
"r  c #635539",
"t  c #6D5B3B",
"y  c #6C5A37",
"u  c #725C34",
"i  c #725E3B",
"p  c #785C34",
"a  c #785A2E",
"s  c #7C6235",
"d  c #73613D",
"f  c #7B643C",
"g  c #7F683C",
"h  c #746442",
"j  c #7A6742",
"k  c #7D6943",
"l  c #6D5E40",
"z  c #8C6D32",
"x  c #836A3C",
"c  c #896E3B",
"v  c #836836",
"b  c #8D713E",
"n  c #947535",
"m  c #997A36",
"M  c #93763A",
"N  c #94793E",
"B  c #9B7D3C",
"V  c #977836",
"C  c #80652E",
"Z  c #846D42",
"A  c #846D44",
"S  c #8C7444",
"D  c #8B7649",
"F  c #887448",
"G  c #917542",
"H  c #957A44",
"J  c #9A7E43",
"K  c #947C4A",
"L  c #9A7F49",
"P  c #9E813E",
"I  c #A3833F",
"U  c #AA883F",
"Y  c #9E8143",
"T  c #9D834B",
"R  c #9F8752",
"E  c #9B8557",
"W  c #A38543",
"Q  c #A68945",
"!  c #AB8B45",
"~  c #A2864A",
"^  c #A5894B",
"/  c #AB8D4A",
"(  c #A98746",
")  c #B38F4E",
"_  c #B08F43",
"`  c #AD914C",
"'  c #B49245",
"]  c #B3944C",
"[  c #B6984E",
"{  c #BA9B4D",
"}  c #B8974F",
"|  c #A48B52",
" . c #A98E54",
".. c #A68C56",
"X. c #AD9354",
"o. c #AC935B",
"O. c #AA945D",
"+. c #B29652",
"@. c #BA9552",
"#. c #B59953",
"$. c #BA9C53",
"%. c #B1975A",
"&. c #B49A5B",
"*. c #BB9E5B",
"=. c #BDA255",
"-. c #BDA25B",
";. c #AC9563",
":. c #AF9968",
">. c #B29A64",
",. c #BA9E63",
"<. c #B39D6C",
"1. c #B49B64",
"2. c #B49F71",
"3. c #BDA362",
"4. c #BCA46B",
"5. c #BBA674",
"6. c #BAA77B",
"7. c #B9A579",
"8. c #C29E5B",
"9. c #C1A656",
"0. c #C2A35D",
"q. c #C4AB5C",
"w. c #C3A857",
"e. c #C4A463",
"r. c #C5AB62",
"t. c #C4A66A",
"y. c #C6A96D",
"u. c #C8AA6C",
"i. c #C8AB65",
"p. c #CAB363",
"a. c #CBB46A",
"s. c #CAB566",
"d. c #D3BD6A",
"f. c #D1B967",
"g. c #C6AB73",
"h. c #C9AD74",
"j. c #C5AD7A",
"k. c #CAB274",
"l. c #CBB27C",
"z. c #CEBC72",
"x. c #D3BD72",
"c. c #DAC36E",
"v. c #D7C06B",
"b. c #D6C173",
"n. c #DBC573",
"m. c #DEC974",
"M. c #DECA79",
"N. c #DAC47C",
"B. c #E1CB75",
"V. c #E1CD79",
"C. c #E5D27C",
"Z. c #E8D37A",
"A. c #BDAB83",
"S. c #C1AE83",
"D. c #CDB583",
"F. c #CFB986",
"G. c #C4B38D",
"H. c #CAB78A",
"J. c #D1BB8B",
"K. c #D2BC84",
"L. c #CCBD9C",
"P. c #CAB994",
"I. c #D2BE93",
"U. c #CCBFA0",
"Y. c #DBC683",
"T. c #DCC982",
"R. c #DBC78A",
"E. c #D5C195",
"W. c #DAC899",
"Q. c #DACA9A",
"!. c #E1CD88",
"~. c #E9D781",
"^. c #E9D882",
"/. c #E0CE97",
"(. c #E3D298",
"). c #CEC1A2",
"_. c #D3C5A4",
"`. c #DBCAA4",
"'. c #D3C7AA",
"]. c #D7C9AC",
"[. c #DBCCAB",
"{. c #D8C7A3",
"}. c #D8CCB3",
"|. c #DDD3BC",
" X c #DED0B3",
".X c #DFD1AF",
"XX c #E2D4AC",
"oX c #E6D7A7",
"OX c #E2D4B3",
"+X c #E9DDBB",
"@X c #E4D8B9",
"#X c #EDE1BB",
"$X c #F0E5BD",
"%X c #DED5C0",
"&X c #E4DAC4",
"*X c #E8DEC5",
"=X c #E5DDCA",
"-X c #E3D9C5",
";X c #E7DFD0",
":X c #ECE2C4",
">X c #ECE3CD",
",X c #ECE4D3",
"<X c #EEE9DC",
"1X c #EBE5D8",
"2X c #F1E9D5",
"3X c #F3ECDC",
"4X c #F5ECCC",
"5X c #F2EDE2",
"6X c #F2EFE8",
"7X c #F6F1E3",
"8X c #F6F2EB",
"9X c #F9F5ED",
"0X c #F9F5E6",
"qX c #F9F6F1",
"wX c #FBFAF5",
"eX c #FFFFFF",
"rX c #FFFEFE",
"tX c #FEFEFD",
"yX c #FFFFFE",
"uX c #F7F5F0",
"iX c #EFEBE1",
/* pixels */
"eXeXeXeXeXeXeXeXeXeXeXeXeXeXeXeXeXeXeXeXqX5X>X+XXXQ.J.F.D.l.l.D.K.E.Q.XX+X2X7XwXeXeXeXeXeXeXeXeXeXeXeXeXeXeXeXeXeXeXeXeX",
"eXeXeXeXeXeXeXeXeXeXeXeXeXeXeXeXtXqX9X5X,X&XOX`.E.J.l.l.k.k.k.k.l.K.R.W.XX@X:X2X5X9XqXwXeXeXeXeXeXeXeXeXeXeXeXeXeXeXeXeX",
"eXeXeXeXeXeXeXeXeXeXeXeXeXeXeXtX9X2X&X[.I.D.g.y.t.3.3.3.3.0.0.0.e.r.a.k.l.K.J.W.XX*X2X8XwXeXeXeXeXeXeXeXeXeXeXeXeXeXeXeX",
"eXeXeXeXeXeXeXeXeXeXeXeXeXwX9X3X*X[.I.j.,.%.+.] #.#.#.#.=.=.=.=.=.=.q.q.q.r.t.k.K.Q.OX:X2X7XqXwXeXeXeXeXeXeXeXeXeXeXeXeX",
"eXeXeXeXeXeXeXeXeXeXeXeXqX5X*X`.H.5.>.X.^ ^ / ] #.$.#.$.=.=.=.=.9.q.q.q.p.p.r.a.z.N.Y.W.XX+X2X8XtXeXeXeXeXeXeXeXeXeXeXeX",
"eXeXeXeXeXeXeXeXeXeXwX8X,X@XI.j.&./ ^ W W W ^ ` #.$.[ [ $.=.=.=.=.9.q.q.p.p.r.p.d.n.N.N.T.Q.XX>X7XqXeXeXeXeXeXeXeXeXeXeX",
"eXeXeXeXeXeXeXeXeXwX6X=X_.S.1.X.^ W W Q / / Q / ] [ ' ' [ [ [ [ $.$.=.9.r.r.r.s.n.C.C.C.V.M.T.Q.+X3XqXeXeXeXeXeXeXeXeXeX",
"eXeXeXeXeXeXeXeXqX5X-XL.5.o.^ W W W W Q / / Q Q / _ / ` ] [ [ [ [ [ $.=.q.r.r.f.m.C.^.~.C.B.N.Y./.+X3XqXeXeXeXeXeXeXeXeX",
"eXeXeXeXeXeXeXqX<X|.H.<. .~ W Q / / W W W W W W Q ! _ [ $.$.$.$.[ [ { $.9.q.p.f.n.V.C.C.~.C.C.M.T.Q.+X3XwXeXeXeXeXeXeXeX",
"eXeXeXeXeXeXwX5X|.G.>.^ W Y W Q / Q Y B B B I W ( ! ' [ $.=.=.$.#.[ { =.9.q.p.f.n.B.C.C.^.^.~.C.M.T./.+X7XwXeXeXeXeXeXeX",
"eXeXeXeXeXqX5X|.G.>.~ Y W W Q W W P B n V B I Q / ' [ #.$.=.=.=.$.$.$.=.9.q.p.f.m.C.C.C.C.~.^.^.C.V.T./.:X7XwXeXeXeXeXeX",
"eXeXeXeXtX8X-XP.>.~ B B W Q Q W Y B n n V B W Q ' [ [ $.=.=.=.=.*.*.=.9.9.q.p.d.m.C.C.C.C.C.C.~.Z.C.m.T.oX:X9XeXeXeXeXeX",
"eXeXeXtXuX;XL.2.| B B B W W W W Y J B B B P W ` [ $.#.$.=.=.=.=.$.=.9.q.w.q.p.d.n.C.C.C.C.C.V.C.C.Z.C.V.!.oX2XqXeXeXeXeX",
"eXeXeXqX<X}.6...J B B W W W W W Y J B B P I ! ' $.=.$.$.=.=.=.=.$.=.q.q.q.q.p.d.N.V.C.C.C.V.B.B.C.Z.Z.C.M./.#X3XwXeXeXeX",
"eXeXeX8X|.P.>.~ B B Q ^ W Y P B B B B B I U ! ' =.=.$.$.=.=.=.=.$.=.q.p.q.q.p.d.n.m.B.B.B.B.B.B.B.C.Z.C.B.!.(.:X9XeXeXeX",
"eXeXqX,X).7...Y Y W Q ^ W Y B B B B B B B I ! ' $.=.{ { $.$.=.$.$.=.q.q.q.q.p.f.c.n.n.n.m.B.B.B.m.m.C.C.V.V.!.oX3XwXeXeX",
"eXqX5X|.S.;.~ Y W Q Q W Y Y B B J J N M n B W / [ [ ' ' ] [ { { [ #.$.=.=.9.r.p.d.d.d.c.c.n.B.B.c.n.B.V.V.B.M./.:X0XwXeX",
"eX9X=X).5...T Y Q ! Q W Y Y B B Y Y N M n V I ! / ' ' ' / ` ' [ ' ' [ [ $.$.-.r.s.f.d.d.c.n.B.B.n.c.m.B.C.B.n.T.oX2XqXeX",
"eX6X|.G.:.^ Y W / / Q W W W P P W Y N M n m U ! ! ! _ ' / / ' ' ' ' ' ' ' ' $.-.q.p.p.f.v.n.B.B.m.n.n.m.C.C.m.M.(.#X0XeX",
"qX<X'.6.;.^ ~ ^ / ` ! Q Q W I W W W N N B I _ ' ! ! ' ' ` _ ' ' ' ' ' ' ' ' ] #.=.q.q.s.v.c.m.B.B.m.n.n.V.C.B.M.!.oX3XwX",
"8X,XU.7.O.|  ./ ` ` ! Q Q ! W W W W B J Q ` [ ' ' ' ] [ ] ] [ [ { { { ' ' ' ' ' $.-.q.p.d.c.m.B.B.m.n.n.V.V.V.V.M.(.4X0X",
"5X-XP.<...| X.X.X.` / / / ! Q W W W B W X.#.$.{ ' ' #.#.#.#.#.$.=.=.=.{ ' ' ' ' $.=.q.p.d.n.m.m.B.m.n.n.m.V.V.V.M./.$X3X",
"1X|.G.;.| ~ ` +.+.] ] ' ` / ! Q W W B W +.-.$.{ ' ' $.$.#.#.#.$.=.=.9.=.{ ' ' ' $.-.q.p.d.n.m.m.m.M.M.m.m.B.V.m.n.!.#X4X",
"=X}.A.;.^ ^ +.#.#.+.[ ] ] ` / Q W P B W +.$.[ ' ! / [ $.#.+.` ` +.#.$.{ ' ' ' ' $.9.r.a.b.N.m.m.M.M.M.m.m.m.B.m.n.T.oX#X",
"-X].S.1.X.X.#.*.#.#.#.#.] ' / Q W B m B Q / ! U B I ` ] ` ^ J H J ~ ^ ! ! ! _ ' { =.q.f.N.M.M.M.N.N.N.N.n.n.B.m.c.N.(.oX",
"|.'.S.1.%.#.*.*.$.#.#.#.] ' ! W B B n m Y Y M z C v N Y J S g f g x x c M B ! ' ] $.q.f.N.M.M.n.n.n.n.n.n.n.B.m.c.b.!.(.",
" X_.6.%.%.#.*.-.$.#.#.#.` ! W P B V B B Y S u 4 3 3 q y d u w 6 4 4 2 4 0 C B Q Q ` =.p.b.N.N.N.v.d.c.n.n.m.B.m.c.N.R./.",
"}.).6.o.X.#.*.-.$.#.+.] ! W P B V V B Y K Z 4 $ # # > , 4 4 2 , & @ @ @ - 9 v N H ^ $.r.a.z.x.d.d.d.c.c.n.m.B.m.c.N.Y.R.",
"].L.6.>.%.#.*.-.$.+.' ! W B m n n B Y T K d , O . + O @ & & $ @ @ O + + @ ; 4 u A T #.3.3.4.s.a.d.d.c.c.c.n.B.m.n.N.Y.Y.",
"].L.6.>.%.#.*.-.$.] ! W B n n n n B W T D t & .   . @ & > > > > > & & @ O O & 2 y Z R o.o.o.-.p.d.v.c.c.c.c.m.m.n.N.N.Y.",
"'.P.5.>.%.%.*.-.$.[ Q B n z z z n B Y K F r & .   O , 6 w e y u d d y 5 @ + O @ > 6 k K K T #.r.d.c.m.m.c.c.m.m.n.N.N.Y.",
"_.P.5.>.%.%.*.-.$.[ Q B n z z z M J Y K A r %     @ 5 t f Z S H K T D d , O . . o > r k A K %.q.f.c.m.B.n.n.n.n.n.b.Y.Y.",
"_.P.6.>.%.&.-.-.$.+.` ^ H b z z M J J K k 6 @     @ 5 i Z H T ~ | | | F 6 & o . . % 7 j F T #.q.p.d.n.M.m.m.n.c.d.b.Y.R.",
"'.L.6.>.o.%.*.-.$.+.%.X.T H b z c b G D k 6 @     @ 5 t Z S J T T T T F 7 > O     % 5 h A K X.-.q.s.b.M.m.m.c.c.d.x.R.W.",
"].L.6.:.o.X.*.-.#.+.#.+.X.T S x s f Z A k 7 @     % 5 l d f x x f h h t 5 & o     @ 5 t d Z T +.=.p.x.n.m.m.n.c.d.b.W.(.",
"}.).A.:...X.&.*.#.+.+.+.X.^ K k i y f k j 7 @     % 7 h i i i u e r r 5 , % +   . % 6 t t d D ^ +.0.a.b.n.m.n.c.d.N./.XX",
"|.'.S.>... .&.*.%.X.` ` ` ^ K k i t f f d 6 @   . & y k f i y e e w 6 2 % +     + & r h t t Z K | &.e.a.v.c.c.c.d.N.oX+X",
"-X}.G.5.O.X.&.&.X.` ^ Q ^ T K A h t e e q < @ . . $ q i u e 8 8 8 3 < & o     + @ 2 t j l t d k F T %.r.d.c.c.d.d.Y.@X>X",
",X%XL.6.>.o.%.%.X./ ~ Y T K D F k t 3 - * # o X X # - 1 3 3 1 < < ; # o .   . @ 2 r h k h d t e w f T -.s.d.f.s.a.R.:X5X",
"5X=X_.S.<.;.o.X.X.^ T H H K D F A i 1 * # # # # # # * ; - : - ; * * # o o O @ , r d h k h i w 4 4 y T -.s.d.s.a.k.W.,XqX",
"uX<X}.G.7.;.o.X.X.^ K S S F F F Z s 9 1 1 1 < - * * - < < - = = - < - , , , 4 w i j k k h t 4 2 6 d | e.a.f.p.a.K.XX5XeX",
"wX6X-XL.6.>.o. .X.| K F F F F S c v u 0 0 0 e 8 : : 3 8 8 3 - : 8 e 8 8 8 e u f Z A A F F f 6 6 t D o.e.p.p.r.k.W.*X9XeX",
"eXuX,X].G.2.;...o.| K F S G G S c x v s v c S g 9 3 p c f u 9 9 Z S Z v s s v c S H J T T K j f D R %.3.3.-.-.l..X2XqXeX",
"eXqX5X-XL.6.:.O.o...E K H H H G S c c b N J T S 9 9 c H S x 0 p K | J H b b G H J T ^ ` +. .K K | o.%.%.o.%.4.J.*X9XtXeX",
"eXeXqX1X'.G.7.;.O.o...| ~ Y J H H H H J J W ~ G 0 0 S L H c a s J ^ W J J Y W ^ / X.#.$.*.#.| | o.%.o...| ;.S.[.3XtXeXeX",
"eXeXtX6X-X).A.<.>.%.%.%.X./ ^ W ~ ~ ~ W W Q Q J s s H ~ L G v c Y Q W W W W ^ / ` +.$.=.-.-.&.%.o.X.| T R <.L.=XqXeXeXeX",
"eXeXeXqX<X|.P.6.4.,.3.*.&.#.+.] ] ) ) ] ' ] ` ^ J J ^  .| ~ J J / / ( W ( W W ~ ^ / +.$.0.e.e.,.o.T K K O.S.@X7XwXeXeXeX",
"eXeXeXtXuX,X'.P.j.y.t.e.3.*.*.*.$.$.$.@.} [ #.+.X.+.+.#.%.X./ / +.] / ( ( W J H J ^ +.*.e.i.u.4.O.R K E 6.'.<XwXeXeXeXeX",
"eXeXeXeXtX8X=X].J.j.g.t.e.0.e.0.0.8.8.$.$.$.$.$.*.8.0.-.-.*.@.+.] ) ) / ( J G b G T %.-.e.t.u.t.,.>.;.6.].,X9XeXeXeXeXeX",
"eXeXeXeXeXqX6X=X`.J.l.g.t.e.e.e.0.0.0.8.*.*.*.8.0.e.0.0.e.0.$.@.] ) ) ) Q T G G H ~ &.0.e.t.t.t.y.g.S._.,X9XtXeXeXeXeXeX",
"eXeXeXeXeXeXwX6X-X].J.l.g.y.t.t.e.e.e.0.0.0.8.8.8.8.8.8.0.8.$.@.@.@.@.+./ ^ T T ^ X.*.e.e.e.e.e.g.F.[.>X8XtXeXeXeXeXeXeX",
"eXeXeXeXeXeXeXqX5X-X{.I.D.h.g.y.t.t.t.e.0.0.8.8.8.8.8.8.8.8.$.$.@.@.$.@.#.+.X.o.o.&.*.e.e.e.t.g.F.`.>X9XtXeXeXeXeXeXeXeX",
"eXeXeXeXeXeXeXeXqX6X=X].I.D.l.h.h.u.t.t.0.8.0.0.8.8.0.0.8.8.8.8.8.8.8.0.*.*.-.3.,.&.&.&.*.t.h.I.OX,X9XtXeXeXeXeXeXeXeXeX",
"eXeXeXeXeXeXeXeXeXwX6X;X XW.J.D.l.h.u.t.e.0.e.e.0.8.0.0.8.8.0.0.8.8.e.t.t.t.i.e.,.&.&.1.4.l.E.OX2X9XtXeXeXeXeXeXeXeXeXeX",
"eXeXeXeXeXeXeXeXeXeXqX8X,X&X`.E.F.l.h.u.t.t.u.u.e.e.e.e.e.e.e.e.0.0.e.t.u.y.y.3.&.%.1.5.H.`.*X3XqXtXeXeXeXeXeXeXeXeXeXeX",
"eXeXeXeXeXeXeXeXeXeXeXtXuX<X*XOX`.I.F.l.h.h.h.u.t.t.t.t.t.t.t.e.e.e.e.t.y.g.y.4.4.5.j.I. X>X7XwXeXeXeXeXeXeXeXeXeXeXeXeX",
"eXeXeXeXeXeXeXeXeXeXeXeXtXqX8X3X;X@X`.I.J.l.l.h.h.h.g.y.u.u.t.t.e.e.e.t.y.g.g.l.F.W.OX>X5XqXwXeXeXeXeXeXeXeXeXeXeXeXeXeX",
"eXeXeXeXeXeXeXeXeXeXeXeXeXeXeXqX8X<X*XOX[.W.E.J.J.D.D.l.l.h.h.h.h.h.h.l.D.J.E.`.OX:X3X9XtXeXeXeXeXeXeXeXeXeXeXeXeXeXeXeX",
"eXeXeXeXeXeXeXeXeXeXeXeXeXeXeXeXwXqX8X5X,X=X@X X`._.E.I.J.J.J.J.J.I.E.W.[.@X*X,X5X9XqXtXeXeXeXeXeXeXeXeXeXeXeXeXeXeXeXeX",
"eXeXeXeXeXeXeXeXeXeXeXeXeXeXeXeXeXeXtXqX8XiX,X-X|.[.{.E.E.I.I.E.E.{.`.OX+X>X3X9XtXeXeXeXeXeXeXeXeXeXeXeXeXeXeXeXeXeXeXeX"
};
