/* XPM */
static char *player[] = {
/* columns rows colors chars-per-pixel */
"60 60 165 2 ",
"   c #020101",
".  c #080607",
"X  c #070809",
"o  c #0C0B0C",
"O  c #100E0F",
"+  c #120F10",
"@  c #141213",
"#  c #191617",
"$  c #1A1718",
"%  c #1E1B1C",
"&  c #211D1E",
"*  c #2B1B1B",
"=  c #3E1E1E",
"-  c #1E1F20",
";  c #231F20",
":  c #281F20",
">  c #3E1F20",
",  c #262223",
"<  c #292425",
"1  c #2D2A2B",
"2  c #332A2B",
"3  c #3A2829",
"4  c #353333",
"5  c #3A3435",
"6  c #3D393A",
"7  c #3B3738",
"8  c #411E1F",
"9  c #4C1F1F",
"0  c #5E1E1F",
"q  c #511C1D",
"w  c #651E1F",
"e  c #6E1E1E",
"r  c #7B1D1E",
"t  c #4A1F20",
"y  c #421F20",
"u  c #571F20",
"i  c #5A1F20",
"p  c #6F1F20",
"a  c #4C2223",
"s  c #4B2728",
"d  c #472D2E",
"f  c #4D2B2C",
"g  c #522122",
"h  c #5B2021",
"j  c #462F30",
"k  c #492F30",
"l  c #473132",
"z  c #493232",
"x  c #433C3D",
"c  c #4A3B3C",
"v  c #4E3738",
"b  c #632021",
"n  c #6D2020",
"m  c #742021",
"M  c #7F2121",
"N  c #473F40",
"B  c #4C3F40",
"V  c #454142",
"C  c #4C4445",
"Z  c #4D4748",
"A  c #4E494A",
"S  c #544444",
"D  c #514C4D",
"F  c #5E494A",
"G  c #534F50",
"H  c #555152",
"J  c #5A5455",
"K  c #5D5A5A",
"L  c #5B5758",
"P  c #624C4D",
"I  c #694F4F",
"U  c #674F50",
"Y  c #6B5253",
"T  c #615D5E",
"R  c #705657",
"E  c #75595A",
"W  c #7A5C5D",
"Q  c #625F60",
"!  c #656262",
"~  c #696767",
"^  c #6D6B6B",
"/  c #706D6E",
"(  c #6F6F70",
")  c #716F70",
"_  c #767474",
"`  c #797677",
"'  c #7A7879",
"]  c #831D1E",
"[  c #891D1D",
"{  c #941E1E",
"}  c #9E1E1E",
"|  c #A31E1E",
" . c #AC1F1F",
".. c #B81F1F",
"X. c #9D1F20",
"o. c #B41F20",
"O. c #B91F20",
"+. c #832021",
"@. c #8E2021",
"#. c #972021",
"$. c #9B2021",
"%. c #A22121",
"&. c #B62020",
"*. c #BB2020",
"=. c #C32021",
"-. c #CC2121",
";. c #D62121",
":. c #D92121",
">. c #826262",
",. c #8C6969",
"<. c #936E6E",
"1. c #926F70",
"2. c #967070",
"3. c #9C7575",
"4. c #A47B7B",
"5. c #A97E7F",
"6. c #AB7F80",
"7. c #858384",
"8. c #878788",
"9. c #8B8A8B",
"0. c #888687",
"q. c #908E8E",
"w. c #918F90",
"e. c #8F9091",
"r. c #949394",
"t. c #999797",
"y. c #989798",
"u. c #979898",
"i. c #9D9C9C",
"p. c #AE8182",
"a. c #BB8B8B",
"s. c #B38686",
"d. c #A09F9F",
"f. c #A3A2A2",
"g. c #A9A7A8",
"h. c #ACABAB",
"j. c #B0AFB0",
"k. c #B5B3B4",
"l. c #B8B7B7",
"z. c #B7B8B9",
"x. c #BDBCBD",
"c. c #C08E8E",
"v. c #C49192",
"b. c #CB9696",
"n. c #CE9999",
"m. c #D59E9E",
"M. c #D89F9F",
"N. c #D9A0A0",
"B. c #C1BFC0",
"V. c #C5C4C5",
"C. c #CBCACA",
"Z. c #D4D3D3",
"A. c #DADADA",
"S. c #E0DFDF",
"D. c #DFE0E0",
"F. c #E4E3E4",
"G. c #E8E7E7",
"H. c #ECECEC",
"J. c #F5F5F5",
"K. c #F3F3F3",
"L. c #F8F7F7",
"P. c #FFFFFF",
"I. c #FEFEFE",
"U. c #FCFCFC",
"Y. c #FFFFFF",
/* pixels */
"P.P.P.P.P.P.P.P.P.P.P.P.P.P.P.P.P.P.P.P.P.P.P.P.P.P.P.P.P.P.P.P.P.P.P.P.P.P.P.P.P.P.P.P.P.P.P.P.P.P.P.P.P.P.P.P.P.P.P.P.",
"P.P.P.P.P.P.P.P.P.P.P.P.P.P.P.P.P.P.P.P.P.P.P.P.P.P.P.P.P.P.P.P.P.P.P.P.P.P.P.P.P.P.P.P.P.P.P.P.P.P.P.P.P.P.P.P.P.P.P.P.",
"P.P.P.P.P.P.P.P.P.P.P.P.P.P.P.P.P.P.P.P.P.P.P.P.P.P.P.P.P.P.P.P.F.l.t.f.A.P.P.P.P.P.P.P.P.P.P.P.P.P.P.P.P.P.P.P.P.P.P.P.",
"P.P.P.P.P.P.P.P.P.P.P.P.P.P.P.P.P.P.P.P.P.P.P.P.P.P.P.P.P.P.G.9.x , & & 5 g.P.P.P.P.P.P.P.P.P.P.P.P.P.P.P.P.P.P.P.P.P.P.",
"P.P.P.P.P.P.P.P.P.P.P.P.P.P.P.P.P.P.P.P.P.P.P.P.P.P.P.P.P.U.` % % & & ; & 5 Z.P.P.P.P.P.P.P.P.P.P.P.P.P.P.P.P.P.P.P.P.P.",
"P.P.P.P.P.P.P.P.P.P.P.P.P.P.P.P.P.P.P.P.P.P.P.P.P.P.P.P.P.G.x < F P 2 & ; % 0.P.P.P.P.P.P.P.P.P.P.P.P.P.P.P.P.P.P.P.P.P.",
"P.P.P.P.P.P.P.P.P.P.P.P.P.P.P.P.P.P.P.P.P.P.P.P.P.P.P.P.P.G.x >.m.m.4.2 , , K U.P.P.P.P.P.P.P.P.P.P.P.P.P.P.P.P.P.P.P.P.",
"P.P.P.P.P.P.P.P.P.P.P.P.P.P.P.P.P.P.P.P.P.P.P.P.P.P.P.P.P.K.J 3.m.m.m.R Y W D K.P.P.P.P.P.P.P.P.P.P.P.P.P.P.P.P.P.P.P.P.",
"P.P.P.P.P.P.P.P.P.P.P.P.P.P.P.P.P.P.P.P.P.P.P.P.P.P.P.P.P.P.7.Y m.m.m.b.n.4.H K.P.P.P.P.P.P.P.P.P.P.P.P.P.P.P.P.P.P.P.P.",
"P.P.P.P.P.P.P.P.P.P.P.P.P.P.P.P.P.P.P.P.P.P.P.P.P.P.P.P.P.P.V.c c.m.m.m.N.,.T K.P.P.P.P.P.P.P.P.P.P.P.P.P.P.P.P.P.P.P.P.",
"P.P.P.P.P.P.P.P.P.P.P.P.P.P.P.P.P.P.P.P.P.P.P.P.P.P.P.P.P.P.K.! >.m.m.m.a.c 5 ! _ e.C.P.P.P.P.P.P.P.P.P.P.P.P.P.P.P.P.P.",
"P.P.P.P.P.P.P.P.P.P.P.P.P.P.P.P.P.P.P.P.P.P.P.P.P.P.P.P.P.P.P.x.c p.m.p.S ; e { ] e d y.U.P.P.P.P.P.P.P.P.P.P.P.P.P.P.P.",
"P.P.P.P.P.P.P.P.P.P.P.P.P.P.P.P.P.P.P.P.P.P.P.P.P.P.P.P.P.P.P.K.K 2 S c S 3 &.:.:.;. .a 8.K.P.P.P.P.P.P.P.P.P.P.P.P.P.P.",
"P.P.P.P.P.P.P.P.P.P.P.P.P.P.P.P.P.P.P.P.P.P.P.P.P.P.P.P.P.P.H._ 3 2 R 3.F n ;.;.;.;.:.&.a 7.K.P.P.P.P.P.P.P.P.P.P.P.P.P.",
"P.P.P.P.P.P.P.P.P.P.P.P.P.P.P.P.P.P.P.P.P.P.P.P.P.P.P.P.P.K._ 0 *.+.f l b =.;.;.;.;.;.:.*.a y.P.P.P.P.P.P.P.P.P.P.P.P.P.",
"P.P.P.P.P.P.P.P.P.P.P.P.P.P.P.P.P.P.P.P.P.P.P.P.P.P.P.P.P.f.g =.:.;.*.&.-.;.;.;.;.;.;.;.:. .l V.P.P.P.P.P.P.P.P.P.P.P.P.",
"P.P.P.P.P.P.P.P.P.P.P.P.P.P.P.P.P.P.P.P.P.P.P.P.P.P.P.P.H.D } :.=.=.:.:.;.;.;.;.:.$.+.;.;.:.] ! K.P.P.P.P.P.P.P.P.P.P.P.",
"P.P.P.P.P.P.P.P.P.P.P.P.P.P.P.P.P.P.P.P.P.P.P.P.P.P.P.P.z.g -.-.h @.:.;.;.;.;.;.:.m < p -.;.] 1 / A.P.P.P.P.P.P.P.P.P.P.",
"P.P.P.P.P.P.P.P.P.P.P.P.P.P.P.P.P.P.P.P.P.P.P.P.P.P.P.U.~ ] :.+.g -.;.;.;.;.;.;.;.h 9.! 0 r l 3.E Z z.P.P.P.P.P.P.P.P.P.",
"P.P.P.P.P.P.P.P.P.P.P.P.P.P.P.P.P.P.P.P.P.P.P.P.P.P.P.f.s =.-.g #.:.;.;.;.;.;.;.=.f C.H./ 2 4.N.m.<.N x.P.P.P.P.P.P.P.P.",
"P.P.P.P.P.P.P.P.P.P.P.P.P.P.P.P.P.P.P.P.P.P.P.P.P.P.g.4 w ;.*.t *.:.;.;.;.;.;.:.| D H.P.G.J >.m.m.m.,.Z A.P.P.P.P.P.P.P.",
"P.P.P.P.P.P.P.P.P.P.P.P.P.P.P.P.P.P.P.P.P.P.P.P.P.f.c >.l { $.u -.;.;.;.;.;.;.:.r ' P.P.P.C.Z E v.m.m.R K G.P.P.P.P.P.P.",
"P.P.P.P.P.P.P.P.P.P.P.P.P.P.P.P.P.P.P.P.P.P.P.U.y.c 4.m.3.l y b ;.;.;.;.;.;.;.;.h f.P.P.P.P.Z.! c <.n.b.P T A.P.P.P.P.P.",
"P.P.P.P.P.P.P.P.P.P.P.P.P.P.P.P.P.P.P.P.P.P.P.y.c p.m.m.n.Y - m :.;.;.;.;.;.;.-.f C.P.P.P.P.P.K.h.H F a.b.E A V.P.P.P.P.",
"P.P.P.P.P.P.P.P.P.P.P.P.P.P.P.P.P.P.P.P.P.P.t.c p.m.m.v.Y D x { :.;.;.;.;.;.:...v D.P.P.P.P.P.P.P.G.' S v.m.,.Z A.P.P.P.",
"P.P.P.P.P.P.P.P.P.P.P.P.P.P.P.P.P.P.P.P.P.f.c p.N.m.3.B ^ x.c ..:.;.;.;.;.;.:. .S H.P.P.P.P.P.P.P.P.K.! W b.m.Y 0.P.P.P.",
"P.P.P.P.P.P.P.P.P.P.P.P.P.P.P.P.P.P.P.P.j.c 4.m.6.F Z i.K.f.h -.;.;.;.:.:.;.:.| J K.P.P.P.P.P.P.P.P.P.h.7 Y m.3.L K.P.P.",
"P.P.P.P.P.P.P.P.P.P.P.P.P.P.P.P.P.P.P.V.N 3.m.3.c 9.F.P.K.H = h u i b M %.=.:.} T U.P.P.P.P.P.P.P.P.P.U.x.x 3.I ! U.P.P.",
"P.P.P.P.P.P.P.P.P.P.P.P.P.P.P.P.P.P.K.! >.m.m.F y.P.P.P.C.1 o o o o o @ & 8 +.] T U.P.P.P.P.P.P.P.P.P.P.K.' A _ Z.P.P.P.",
"P.P.P.P.P.P.P.P.P.P.P.P.P.P.P.P.P.P.H.D <.v.,.5 l.P.P.K.Q o               X # * K U.P.P.P.P.P.P.P.P.P.P.P.L.H.P.P.P.P.P.",
"P.P.P.P.P.P.P.P.P.P.P.P.P.P.P.P.P.P.P.f.C B H 0.G.P.P.q.$     . @             @ _ U.P.P.P.P.P.P.P.P.P.P.P.P.P.P.P.P.P.P.",
"P.P.P.P.P.P.P.P.P.P.P.P.P.P.P.P.P.P.P.P.A.C.H.P.P.P.B.1 .     @ @             < V.P.P.P.P.P.P.P.P.P.P.P.P.P.P.P.P.P.P.P.",
"P.P.P.P.P.P.P.P.P.P.P.P.P.P.P.P.P.P.P.P.P.P.P.P.P.G.G o     O $             @ ` U.P.P.P.P.P.P.P.P.P.P.P.P.P.P.P.P.P.P.P.",
"P.P.P.P.P.P.P.P.P.P.P.P.P.P.P.P.P.P.P.P.P.P.P.P.P.r.% o   o % o           @ ! G.P.P.P.P.P.P.P.P.P.P.P.P.P.P.P.P.P.P.P.P.",
"P.P.P.P.P.P.P.P.P.P.P.P.P.P.P.P.P.P.P.P.P.P.P.P.A.C W c # ; 2 % o .     @ ~ G.P.P.P.P.P.P.P.P.P.P.P.P.P.P.P.P.P.P.P.P.P.",
"P.P.P.P.P.P.P.P.P.P.P.P.P.P.P.P.P.P.P.P.P.P.P.P.r.P m.a.5 W a.3.P , o + ! G.P.P.P.P.P.P.P.P.P.P.P.P.P.P.P.P.P.P.P.P.P.P.",
"P.P.P.P.P.P.P.P.P.P.P.P.P.P.P.P.P.P.P.P.P.P.P.K.K 2.N.4.c v.m.m.m.3.2 A F.P.P.P.P.P.P.P.P.P.P.P.P.P.P.P.P.P.P.P.P.P.P.P.",
"P.P.P.P.P.P.P.P.P.P.P.P.P.P.P.P.P.P.P.P.P.P.P.G.Z 4.N.Y E m.m.m.m.5.5 f.l.9.V.P.P.P.P.P.P.P.P.P.P.P.P.P.P.P.P.P.P.P.P.P.",
"P.P.P.P.P.P.P.P.P.P.P.P.P.P.P.P.P.P.P.P.P.P.P.P.w.c >.c 4.N.m.m.m.Y > 3 < % 6 C.P.P.P.P.P.P.P.P.P.P.P.P.P.P.P.P.P.P.P.P.",
"P.P.P.P.P.P.P.P.P.P.P.P.P.P.P.P.P.P.P.P.P.P.P.P.U.l.J < Y 1.v.N.s.d X.= ; ; , f.P.P.P.P.P.P.P.P.P.P.P.P.P.P.P.P.P.P.P.P.",
"P.P.P.P.P.P.P.P.P.P.P.P.P.P.P.P.P.P.P.P.P.P.P.P.P.P.f.8 e g v 4.E w $.: ; & 6 F.P.P.P.P.P.P.P.P.P.P.P.P.P.P.P.P.P.P.P.P.",
"P.P.P.P.P.P.P.P.P.P.P.P.P.P.P.P.P.P.P.P.P.P.P.P.P.U.~ [ :.-.] 3 2 a t ; ; & A H.P.P.P.P.P.P.P.P.P.P.P.P.P.P.P.P.P.P.P.P.",
"P.P.P.P.P.P.P.P.P.P.P.P.P.P.P.P.P.P.P.P.P.P.P.P.P.A.z *.:.;.;.q ( 9.< & ; & A K.P.P.P.P.P.P.P.P.P.P.P.P.P.P.P.P.P.P.P.P.",
"P.P.P.P.P.P.P.P.P.P.P.P.P.P.P.P.P.P.P.P.P.P.P.P.P.r.w ;.;.:.| c A.U.! & ; & 6 F.P.P.P.P.P.P.P.P.P.P.P.P.P.P.P.P.P.P.P.P.",
"P.P.P.P.P.P.P.P.U.G.H.U.P.P.P.P.P.P.P.P.P.P.P.P.G.S | :.;.-.g u.P.P.h., ; & < x.P.P.P.P.P.P.P.P.P.P.P.P.P.P.P.P.P.P.P.P.",
"P.P.P.P.P.P.K.f.T V V ~ k.K.P.P.P.P.P.P.P.P.P.P.i.h -.;.;.r T K.P.P.G.V & ; & ^ L.P.P.P.P.P.P.P.P.P.P.P.P.P.P.P.P.P.P.P.",
"P.P.P.P.P.G.~ % o . . @ < ' K.P.P.P.P.P.P.P.P.F.C | :.:.} c Z.P.P.P.P.9.& ; & q.P.P.P.P.P.P.P.P.P.P.P.P.P.P.P.P.P.P.P.P.",
"P.P.P.P.U._ @ .       o & ; w.P.P.P.P.P.P.P.P.0.w ;.:.o.s g.P.P.P.P.P.G.J % & 7.P.P.P.P.P.P.P.P.P.P.P.P.P.P.P.P.P.P.P.P.",
"P.P.P.P.C.1 .         . % & 7 A.P.P.P.P.P.P.V.d &.:.=.g 9.P.P.P.P.P.P.P.F.9.y.F.P.P.P.P.P.P.P.P.P.P.P.P.P.P.P.P.P.P.P.P.",
"P.P.P.P.y.@   @ % O     . o % k.P.P.P.P.P.G.G ] :.=.i _ K.P.P.P.P.P.P.P.P.P.P.P.P.P.P.P.P.P.P.P.P.P.P.P.P.P.P.P.P.P.P.P.",
"P.P.P.P.7.O . & ; %         @ i.P.P.P.P.G.~ & t n 9 ^ H.P.P.P.P.P.P.P.P.P.P.P.P.P.P.P.P.P.P.P.P.P.P.P.P.P.P.P.P.P.P.P.P.",
"P.P.P.P.r.@   $ ; #         $ h.P.P.P.F.! & ; ; % 1 Z.P.P.P.P.P.P.P.P.P.P.P.P.P.P.P.P.P.P.P.P.P.P.P.P.P.P.P.P.P.P.P.P.P.",
"P.P.P.P.V.< . . o .     @ $ 4 A.P.P.C.D & ; ; ; & A H.P.P.P.P.P.P.P.P.P.P.P.P.P.P.P.P.P.P.P.P.P.P.P.P.P.P.P.P.P.P.P.P.P.",
"P.P.P.P.K.^ @         o ; & 0.P.P.C.6 & ; ; ; ; % ) P.P.P.P.P.P.P.P.P.P.P.P.P.P.P.P.P.P.P.P.P.P.P.P.P.P.P.P.P.P.P.P.P.P.",
"P.P.P.P.P.F.K # o . . @ , ^ H.P.P.f.% & & & & % , g.P.P.P.P.P.P.P.P.P.P.P.P.P.P.P.P.P.P.P.P.P.P.P.P.P.P.P.P.P.P.P.P.P.P.",
"P.P.P.P.P.P.G.r.D 5 5 H i.K.P.P.P.V.! x H Q ^ / 7.K.P.P.P.P.P.P.P.P.P.P.P.P.P.P.P.P.P.P.P.P.P.P.P.P.P.P.P.P.P.P.P.P.P.P.",
"P.P.P.P.P.P.P.P.K.S.S.K.P.P.P.P.P.P.U.A.H.U.P.P.U.P.P.P.P.P.P.P.P.P.P.P.P.P.P.P.P.P.P.P.P.P.P.P.P.P.P.P.P.P.P.P.P.P.P.P.",
"P.P.P.P.P.P.P.P.P.P.P.P.P.P.P.P.P.P.P.P.P.P.P.P.P.P.P.P.P.P.P.P.P.P.P.P.P.P.P.P.P.P.P.P.P.P.P.P.P.P.P.P.P.P.P.P.P.P.P.P.",
"P.P.P.P.P.P.P.P.P.P.P.P.P.P.P.P.P.P.P.P.P.P.P.P.P.P.P.P.P.P.P.P.P.P.P.P.P.P.P.P.P.P.P.P.P.P.P.P.P.P.P.P.P.P.P.P.P.P.P.P.",
"P.P.P.P.P.P.P.P.P.P.P.P.P.P.P.P.P.P.P.P.P.P.P.P.P.P.P.P.P.P.P.P.P.P.P.P.P.P.P.P.P.P.P.P.P.P.P.P.P.P.P.P.P.P.P.P.P.P.P.P."
};
