/* XPM */
static char *player[] = {
/* columns rows colors chars-per-pixel */
"60 60 228 2 ",
"   c #5C555E",
".  c #425764",
"X  c #445864",
"o  c #4A5C65",
"O  c #4A5662",
"+  c #5E5D62",
"@  c #546266",
"#  c #5A6567",
"$  c #5C696B",
"%  c #5C6768",
"&  c #646C69",
"*  c #676D69",
"=  c #6B716A",
"-  c #73766B",
";  c #7B7A6C",
":  c #747A77",
">  c #795558",
",  c #D32C2B",
"<  c #D3312E",
"1  c #D43532",
"2  c #D63A37",
"3  c #F43E33",
"4  c #D7453D",
"5  c #CE473C",
"6  c #E9463B",
"7  c #F44136",
"8  c #F4453A",
"9  c #F44B3D",
"0  c #F44837",
"q  c #F4503E",
"w  c #855254",
"e  c #A9504C",
"r  c #B86F59",
"t  c #827E6D",
"y  c #916F62",
"u  c #8B675F",
"i  c #D74844",
"p  c #C85849",
"a  c #DE5945",
"s  c #DB5D59",
"d  c #C24F47",
"f  c #F44D42",
"g  c #F45346",
"h  c #F4544A",
"j  c #F45A49",
"k  c #E75B56",
"l  c #F45C53",
"z  c #E65045",
"x  c #CB634F",
"c  c #E36A4D",
"v  c #F5694C",
"b  c #EC6956",
"n  c #F5645A",
"m  c #F56658",
"M  c #E87556",
"N  c #F47150",
"B  c #F77A58",
"V  c #DE6565",
"C  c #DE6968",
"Z  c #C37A61",
"A  c #F46B63",
"S  c #E37766",
"D  c #F5736B",
"F  c #F57067",
"G  c #E17B7B",
"H  c #F57B73",
"J  c #F57F78",
"K  c #E36966",
"L  c #85816E",
"P  c #8B846F",
"I  c #92896F",
"U  c #878679",
"Y  c #948A71",
"T  c #998D72",
"R  c #908770",
"E  c #9E9072",
"W  c #B4926F",
"Q  c #A49473",
"!  c #A89774",
"~  c #AD9974",
"^  c #AE9C79",
"/  c #B59E75",
"(  c #AB896F",
")  c #BAA276",
"_  c #BAA279",
"`  c #DA855E",
"'  c #EB855C",
"]  c #F7855B",
"[  c #D39A71",
"{  c #E98C61",
"}  c #F49564",
"|  c #F6847D",
" . c #F08177",
".. c #F68564",
"X. c #C6AA78",
"o. c #CCAD79",
"O. c #C1A778",
"+. c #D4B27B",
"@. c #DAB67B",
"#. c #DEB87C",
"$. c #D0AF7A",
"%. c #F7A56C",
"&. c #F9AE71",
"*. c #E3BB7C",
"=. c #E9BF7D",
"-. c #EEB376",
";. c #F9B474",
":. c #F8B878",
">. c #E5A971",
",. c #EDC27E",
"<. c #F3C57F",
"1. c #FAC57D",
"2. c #FECB7E",
"3. c #6E7D85",
"4. c #73828B",
"5. c #7E8C94",
"6. c #9B9889",
"7. c #8A9293",
"8. c #A69D86",
"9. c #B8A787",
"0. c #A4A398",
"q. c #B3AA96",
"w. c #96A1A7",
"e. c #A5A9A8",
"r. c #B7B3A6",
"t. c #A9B2B8",
"y. c #B8BCBD",
"u. c #A3ADB3",
"i. c #F68B84",
"p. c #F68A83",
"a. c #F6928C",
"s. c #F79987",
"d. c #E89A9A",
"f. c #F69A94",
"g. c #F79E98",
"h. c #F79892",
"j. c #EB8B84",
"k. c #DBBC89",
"l. c #CBB58E",
"z. c #E3BD83",
"x. c #F7A29D",
"c. c #F8A39D",
"v. c #EDA587",
"b. c #C9BDA6",
"n. c #C3BEB2",
"m. c #DABDA2",
"M. c #ECA7A5",
"N. c #F7AAA6",
"B. c #F8A9A4",
"V. c #F8AEA9",
"C. c #F8A9A4",
"Z. c #F8B2AE",
"A. c #EEB4B3",
"S. c #F9B9B5",
"D. c #F9BDB9",
"F. c #F6B7B4",
"G. c #DDC296",
"H. c #EAC387",
"J. c #FECC81",
"K. c #FECF89",
"L. c #F5C987",
"P. c #FFD18C",
"I. c #F4C995",
"U. c #FED393",
"Y. c #FED69B",
"T. c #FED89F",
"R. c #F4D19B",
"E. c #EDCF9F",
"W. c #D9C7A8",
"Q. c #C6C3BB",
"!. c #DCD2BD",
"~. c #D2C8B3",
"^. c #E4CBA5",
"/. c #EED3A9",
"(. c #FEDAA4",
"). c #FDDDAC",
"_. c #F7D6A6",
"`. c #F9C1BE",
"'. c #F6C0BE",
"]. c #E7D6BA",
"[. c #FEDFB0",
"{. c #F4D9B9",
"}. c #FAC2A3",
"|. c #FEE1B5",
" X c #FDE3BC",
".X c #B7BDC2",
"XX c #BAC1C7",
"oX c #C6CACC",
"OX c #DAD4C7",
"+X c #D5DADD",
"@X c #DCDBD8",
"#X c #FAC5C2",
"$X c #F5CCCB",
"%X c #F9CAC7",
"&X c #E4DAC9",
"*X c #F9D5CB",
"=X c #E0DCD2",
"-X c #FBD5D3",
";X c #FBD8D6",
":X c #FCDCDA",
">X c #F5D6D6",
",X c #FDE5C2",
"<X c #FEE8C5",
"1X c #FEEACC",
"2X c #F4E2C8",
"3X c #FEEDD3",
"4X c #FBEEDA",
"5X c #F8E5DD",
"6X c #FEF1DD",
"7X c #EFE4D1",
"8X c #DBDEE1",
"9X c #E8E8E8",
"0X c #FCE4E3",
"qX c #FCECEB",
"wX c #F7ECE6",
"eX c #FDF3E4",
"rX c #FDF6EB",
"tX c #FEF8EE",
"yX c #F5F2EC",
"uX c #FDF4F3",
"iX c #FEFAF4",
"pX c #FEF9F9",
"aX c #FFFFFF",
"sX c #FFFEFE",
"dX c #FFFDFC",
"fX c #FFFFFF",
"gX c #F5F6F6",
"hX c #EFF1F2",
/* pixels */
"aXaXaXaXaXaXaXaXaXaXaXaXaXaXaXaXaXaXaXaXaXaXaXaXaXaXaXaXaXaXaXaXaXaXaXaXaXaXaXaXaXaXaXaXaXaXaXaXaXaXaXaXaXaXaXaXaXaXaXaX",
"aXaXaXaXaXaXaXaXaXaXaXaXaXaXaXaXaXaXaXaXaXaXaXaXaXaXaXaXaXaXaXaXaXaXaXaXaXaXaXaXaXaXaXaXaXaXaXaXaXaXaXaXaXaXaXaXaXaXaXaX",
"aXaXaXaXaXaXaXaXaXaXaXaXaXaXaXaXaXaXaXaXaXaXaXaXaXaXaXaXaXaXaXaXaXaXaXaXaXaXaXaXaXaXaXaXaXaXaXaXaXaXaXaXaXaXaXaXaXaXaXaX",
"aXaXaXaXaXaXaXaXaXaXaXaXaXaXaXaXaXaXaXaXaXpXuXuXuXuXuXuXuXpXaXaXaXaXaXaXaXaXaXaXaXaXaXaXaXaXaXaXaXaXaXaXaXaXaXaXaXaXaXaX",
"aXaXaXaXaXaXaXaXaXaXaXaXaXaXaXaXaXaXaXaXuXqX0X;X;X-X;X:X0XqXuXpXaXaXaXaXaXaXaXaXaXaXaXaXaXaXaXaXaXaXaXaXaXaXaXaXaXaXaXaX",
"aXaXaXaXaXaXaXaXaXaXaXaXaXaXaXaXpXuXqX:X%XD.Z.C.C.c.C.N.Z.D.#X-X5XqXuXpXaXaXaXaXaXaXaXaXaXaXaXaXaXaXaXaXaXaXaXaXaXaXaXaX",
"aXaXaXaXaXaXaXaXaXaXaXaXaXaXaXdXrX;XF.f.| D n n n n n n A D J i.c.D.;XqXpXaXaXaXaXaXaXaXaXaXaXaXaXaXaXaXaXaXaXaXaXaXaXaX",
"aXaXaXaXaXaXaXaXaXaXaXaXaXaXpXqX%XV.i.D m g 9 8 7 7 7 7 8 f g l D i.C.#X:XqXpXaXaXaXaXaXaXaXaXaXaXaXaXaXaXaXaXaXaXaXaXaX",
"aXaXaXaXaXaXaXaXaXaXaXaXaXpX0X#Xa.D A n n n h f 7 3 3 7 7 8 8 9 f h n | x.#X0XpXaXaXaXaXaXaXaXaXaXaXaXaXaXaXaXaXaXaXaXaX",
"aXaXaXaXaXaXaXaXaXaXaXaXaXqX#Xx.J D J p.a.a.p.D l f 8 7 7 7 7 3 3 7 8 h D h.D.:XuXaXaXaXaXaXaXaXaXaXaXaXaXaXaXaXaXaXaXaX",
"aXaXaXaXaXaXaXaXaXaXaXaXpX;Xc.p.i.x.D.-X:X:X$XF.a.A g 7 7 7 7 7 7 7 7 8 f n | N.;XuXaXaXaXaXaXaXaXaXaXaXaXaXaXaXaXaXaXaX",
"aXaXaXaXaXaXaXaXaXaXaXpXqX#Xa.| C.`.;XqXuXuX0X*XF.a.n 9 8 7 7 7 7 7 7 7 3 8 l J V.-XqXaXaXaXaXaXaXaXaXaXaXaXaXaXaXaXaXaX",
"aXaXaXaXaXaXaXaXaXaXaXuX;XF.a.h.`.*X`.#X:X:X#X`.*XF.J h 8 7 7 7 7 7 7 7 7 7 8 h H c.-XuXaXaXaXaXaXaXaXaXaXaXaXaXaXaXaXaX",
"aXaXaXaXaXaXaXaXaXaXaXqX#XN.g.C.#X`.g.h.V.V.h.x.$X%Xa.A f 3 7 7 7 7 7 7 7 7 3 8 h H V.;XuXaXaXaXaXaXaXaXaXaXaXaXaXaXaXaX",
"aXaXaXaXaXaXaXaXaXaXaXqXF.x.N.Z.Z.f.D n D D n H Z.D.x.H g 3 3 7 7 7 7 7 7 7 7 7 8 h J N.:XpXaXaXaXaXaXaXaXaXaXaXaXaXaXaX",
"aXaXaXaXaXaXaXaXaXaXaX0XV.f.N.N.f.| A n n n m D f.N.g.| g 3 3 7 7 7 7 7 7 7 7 3 3 8 h | D.0XpXaXaXaXaXaXaXaXaXaXaXaXaXaX",
"aXaXaXaXaXaXaXaXaXaXaX0XN.a.h.a.| | a.a.p.| i.a.i.i.i.H g 3 3 7 7 7 7 7 7 7 7 7 7 7 8 n a.`.qXaXaXaXaXaXaXaXaXaXaXaXaXaX",
"aXaXaXaXaXaXaXaXaXaXaX0XC.| | | | a.Z.D.V.N.F.N.a.J H A f 3 3 7 7 7 7 7 7 7 7 7 7 7 3 f A g.-XuXaXaXaXaXaXaXaXaXaXaXaXaX",
"aXaXaXaXaXaXaXaXaXaXaX0Xc.J D H h.F.$X;X$X$X$X'.x.| A h 8 3 3 3 7 7 7 7 7 7 7 7 7 7 7 8 g H Z.:XuXaXaXaXaXaXaXaXaXaXaXaX",
"aXaXaXaXaXaXaXaXaXaXaX;Xf.A l n j.M.A.A.A.A.A.M.f. .b g q 9 9 9 9 9 8 8 7 7 7 7 7 7 7 7 8 l i.Z.*X0XuXpXaXaXaXaXaXaXaXaX",
"aXaXaXaXaXaXaXaXaXpXqX#Xj.k z z k V V V V V S S S S M N N N N N v v g f 9 8 7 7 7 7 7 7 7 f m H a.V.%X0XpXaXaXaXaXaXaXaX",
"aXaXaXaXaXaXaXpXqX:XD.d.K i 2 1 2 4 4 4 i a c M ' { { } } } } } ] ] B N v j q 9 8 7 7 7 7 7 9 g n H g.`.0XuXaXaXaXaXaXaX",
"aXaXaXaXaXaXdXwX#Xd.G s i 1 < , 1 2 4 a M ' } %.&.;.:.:.-.-.-.-.;.;.&.%.} ] N j 9 8 7 7 7 7 7 8 9 g n p.D.0XuXaXaXaXaXaX",
"aXaXaXaXaXpXqX$Xd.C i 1 , , < 1 4 a c ' } &.:.1.2.J.J.,.@.o.o.o.+.#.=.:.;.%.} ] v g 9 8 7 7 7 7 3 7 8 n f.#XqXaXaXaXaXaX",
"aXaXaXaXaXuX$Xd.V 4 1 , , , 1 4 c ' %.;.:.1.2.J.J.J.,.o.Q P P P R Q X.*.<.1.:.&.} M a 6 8 7 7 7 7 3 3 h J V.0XaXaXaXaXaX",
"aXaXaXaXaXwXA.G i , , , , 1 5 x ` >.-.1.J.J.J.J.J.<.@.) R : U U U T ) @.L.J.J.1.-.` x d 4 6 7 7 7 3 3 f A x.5XaXaXaXaXaX",
"aXaXaXaXaX0Xd.V 2 , , , 1 5 p r W O.+.,.J.J.J.J.J.,.o.^ 6.6.r.r.q.9.o.#.<.J.J.<.+.W u w e i 6 7 7 3 3 f A g.5XaXaXaXaXaX",
"aXaXaXaXaX0Xd.V 2 , , < 2 d r ( T Q ) +.,.J.J.J.J.<.+.9.q.n.OX&X~.W.k.H.L.J.J.,.X.T *   w e i 6 9 9 0 g F x.0XaXaXaXaXaX",
"aXaXaXaXaXwXA.G i , , 1 5 r y P U R T / *.J.J.J.J.L.H.^.&X9XyXyXwX7X_.P.J.J.J.=.) L % O   > e p c v j v H N.0XaXaXaXaXaX",
"aXaXaXaXaXuX$XM.C i 2 4 x Z Q 6.0.0.8.9.z.J.J.J.J.K.Y. XeXpXgXgXhX4X XY.J.2.J.*.! - @ . X + u r { } ] ..s.S.qXaXaXaXaXaX",
"aXaXaXaXaXpXuX>XM.G s s M >.m.OX=X=X!.^.L.2.J.J.2.P.(.<XtXgX9X+X+X=X2X(.P.2.2.@.T * o . X # t W >.:.;.:.}.*XrXaXaXaXaXaX",
"aXaXaXaXaXaXaXuX>XA.d.j.v.I.*X4XyXwX7X{.Y.J.J.2.2.P.).3XiX9XoXt.t.y.].).P.2.<.o.L # o X o * T X.H.J.2.K.).1XuXaXaXaXaXaX",
"aXaXaXaXaXaXaXaXuXwX:X*X{.*X4XwX@X+X@X&X_.U.J.2.2.P.).3XyX+Xw.4.4.7.~.).P.<.*./ - o X o # t O.,.J.J.2.K.(.<XrXaXaXaXaXaX",
"aXaXaXaXaXaXaXaXaXaXaXiXeXeXyX9X.Xt.y.Q./.Y.J.2.2.P.).<XyX+Xw.4.4.7.b./.L.,.@.~ = o . o & Y @.J.J.J.2.K.Y. XrXaXaXaXaXaX",
"aXaXaXaXaXaXaXaXaXaXaXaXdXuXhXoX7.3.5.e.W.T.P.2.2.K.Y. XeX9XXXu.u.r.b.G.z.*.@.) t % X o = E #.J.J.J.2.J.Y. XrXaXaXaXaXaX",
"aXaXaXaXaXaXaXaXaXaXaXaXaXdXhXoX7.: 4.0.W.(.P.2.2.J.P.).1X5X@XoXQ.r.q.9.O.o.#.o.! L = = L ~ =.J.J.J.2.K.T.,XrXaXaXaXaXaX",
"aXaXaXaXaXaXaXaXaXaXaXaXaXaXgX8Xt.w.e.b./.Y.K.J.J.J.J.U.). X2XOXn.0.U ; Y ) *.<.*.X.~ Q ~ X.,.J.J.J.2.P.).1XiXaXaXaXaXaX",
"aXaXaXaXaXaXaXaXaXaXaXaXaXaXpX9XOXQ.~.W.R.U.J.J.J.J.2.L.I.E.W.b.0.7.$ % t / =.J.J.,.@.o.+.#.<.J.J.J.J.Y. X6XpXaXaXaXaXaX",
"aXaXaXaXaXaXaXaXaXaXaXaXaXdXrX4X2X].E.I.K.J.J.J.J.J.<.,.#.l.8.U : $ o # L ) =.J.J.J.<.<.<.<.J.J.2.J.U.).3XiXdXaXaXaXaXaX",
"aXaXaXaXaXaXaXaXaXaXaXaXaXiX6X<X|.(.U.J.J.J.J.J.,.#.+.O.~ R - % o X . $ Y X.,.J.J.J.J.J.J.J.J.J.K.U.).<XrXdXaXaXaXaXaXaX",
"aXaXaXaXaXaXaXaXaXaXaXaXaXtX<X).Y.P.J.J.J.J.J.<.+./ R ; = % @ o X X o = ~ @.<.J.J.J.J.J.J.J.K.U.Y.|.3XrXpXaXaXaXaXaXaXaX",
"aXaXaXaXaXaXaXaXaXaXaXaXaXtX<X(.K.2.2.J.J.J.J.=.) P * o o X . . . o % L X.,.J.J.J.J.J.J.K.U.(.[.,X3XrXdXaXaXaXaXaXaXaXaX",
"aXaXaXaXaXaXaXaXaXaXaXaXaXtX<X).L.<.J.J.J.J.J.#.Q - @ X X X X X X @ ; ! #.J.J.J.J.J.2.K.Y.|.1XeXrXiXdXaXaXaXaXaXaXaXaXaX",
"aXaXaXaXaXaXaXaXaXaXaXaXaXiX3X{.k.+.#.=.,.,.*.) t % o . . X X o # - Q o.,.J.J.J.J.J.2.P.).1XrXaXaXaXaXaXaXaXaXaXaXaXaXaX",
"aXaXaXaXaXaXaXaXaXaXaXaXaXpXeX].9.Q ! / X.X.~ P & o X . . X o $ t ! o.,.J.J.J.J.J.J.J.U. X6XpXaXaXaXaXaXaXaXaXaXaXaXaXaX",
"aXaXaXaXaXaXaXaXaXaXaXaXaXdXyX&Xq.T R T Q Q P - % o o o o @ * t ~ +.,.J.J.J.J.J.J.J.P.(.3XtXdXaXaXaXaXaXaXaXaXaXaXaXaXaX",
"aXaXaXaXaXaXaXaXaXaXaXaXaXaXiX7Xm._ E R P P ; - = & & & * ; Y / @.<.J.J.J.J.J.J.2.P.(.,XeXdXaXaXaXaXaXaXaXaXaXaXaXaXaXaX",
"aXaXaXaXaXaXaXaXaXaXaXaXaXaXdX4X/.k._ ~ Q E T T Y R R R Y Q O.#.L.J.J.J.J.J.J.J.J.Y. X4XpXaXaXaXaXaXaXaXaXaXaXaXaXaXaXaX",
"aXaXaXaXaXaXaXaXaXaXaXaXaXaXaXrX,X_.H.*.*.#.@.+.+.+.+.+.+.#.=.<.J.J.J.J.J.J.2.J.Y.|.3XtXdXaXaXaXaXaXaXaXaXaXaXaXaXaXaXaX",
"aXaXaXaXaXaXaXaXaXaXaXaXaXaXaXiX4X XY.P.J.2.J.J.J.J.J.J.J.J.J.J.J.J.J.J.J.J.P.Y.|.3XrXdXaXaXaXaXaXaXaXaXaXaXaXaXaXaXaXaX",
"aXaXaXaXaXaXaXaXaXaXaXaXaXaXaXdXtX3X|.Y.P.2.2.2.J.J.J.J.J.J.J.J.J.J.2.J.J.U.(. X3XrXpXaXaXaXaXaXaXaXaXaXaXaXaXaXaXaXaXaX",
"aXaXaXaXaXaXaXaXaXaXaXaXaXaXaXaXdXrX3X X(.U.P.K.J.J.J.J.J.2.2.J.J.J.K.P.Y.).<X6XtXdXaXaXaXaXaXaXaXaXaXaXaXaXaXaXaXaXaXaX",
"aXaXaXaXaXaXaXaXaXaXaXaXaXaXaXaXaXdXiXeX3X X).Y.U.P.J.J.2.2.2.J.K.U.T.).<X3XrXpXdXaXaXaXaXaXaXaXaXaXaXaXaXaXaXaXaXaXaXaX",
"aXaXaXaXaXaXaXaXaXaXaXaXaXaXaXaXaXaXaXdXtX6X1X X[.(.(.Y.U.U.U.Y.(.[.,X3XeXiXaXaXaXaXaXaXaXaXaXaXaXaXaXaXaXaXaXaXaXaXaXaX",
"aXaXaXaXaXaXaXaXaXaXaXaXaXaXaXaXaXaXaXaXdXpXiXrXeX4X3X<X<X<X<X<X3X6XrXiXpXdXaXaXaXaXaXaXaXaXaXaXaXaXaXaXaXaXaXaXaXaXaXaX",
"aXaXaXaXaXaXaXaXaXaXaXaXaXaXaXaXaXaXaXaXaXaXaXaXdXpXtXrXrXeXeXrXiXpXaXaXaXaXaXaXaXaXaXaXaXaXaXaXaXaXaXaXaXaXaXaXaXaXaXaX",
"aXaXaXaXaXaXaXaXaXaXaXaXaXaXaXaXaXaXaXaXaXaXaXaXaXaXdXdXdXdXdXdXdXaXaXaXaXaXaXaXaXaXaXaXaXaXaXaXaXaXaXaXaXaXaXaXaXaXaXaX",
"aXaXaXaXaXaXaXaXaXaXaXaXaXaXaXaXaXaXaXaXaXaXaXaXaXaXaXaXaXaXaXaXaXaXaXaXaXaXaXaXaXaXaXaXaXaXaXaXaXaXaXaXaXaXaXaXaXaXaXaX",
"aXaXaXaXaXaXaXaXaXaXaXaXaXaXaXaXaXaXaXaXaXaXaXaXaXaXaXaXaXaXaXaXaXaXaXaXaXaXaXaXaXaXaXaXaXaXaXaXaXaXaXaXaXaXaXaXaXaXaXaX",
"aXaXaXaXaXaXaXaXaXaXaXaXaXaXaXaXaXaXaXaXaXaXaXaXaXaXaXaXaXaXaXaXaXaXaXaXaXaXaXaXaXaXaXaXaXaXaXaXaXaXaXaXaXaXaXaXaXaXaXaX"
};
