/* XPM */
static char *wall[] = {
/* columns rows colors chars-per-pixel */
"60 60 136 2 ",
"   c #F20000",
".  c #F20807",
"X  c #F20C0C",
"o  c #F2100F",
"O  c #F31413",
"+  c #F31B1A",
"@  c #F3201F",
"#  c #F32323",
"$  c #F42F2E",
"%  c #F43333",
"&  c #F43B3B",
"*  c #F43F40",
"=  c #F54444",
"-  c #F54C4B",
";  c #F55353",
":  c #F55A5A",
">  c #F66564",
",  c #F66867",
"<  c #F66B6B",
"1  c #F77372",
"2  c #F77877",
"3  c #F77D7C",
"4  c #F78383",
"5  c #F88686",
"6  c #F78887",
"7  c #F78B8A",
"8  c #F88989",
"9  c #F89393",
"0  c #F99B9B",
"q  c #F9A4A4",
"w  c #FAA8A7",
"e  c #FAACAB",
"r  c #FAB0AF",
"t  c #F9AFB0",
"y  c #FAB5B5",
"u  c #FAB2B2",
"i  c #FAB8B7",
"p  c #FBB8B7",
"a  c #FAB8B8",
"s  c #FAB9B9",
"d  c #FABAB9",
"f  c #FABABA",
"g  c #FABCBB",
"h  c #FABDBD",
"j  c #FABFBE",
"k  c #FBBEBE",
"l  c #FBC4C4",
"z  c #FBC6C5",
"x  c #FBC6C6",
"c  c #FBC9C8",
"v  c #FBC9C9",
"b  c #FBCAC9",
"n  c #FBCACA",
"m  c #FBCBCA",
"M  c #FBCBCB",
"N  c #FBCCCC",
"B  c #FBCDCC",
"V  c #FBCDCD",
"C  c #FBCECD",
"Z  c #FBCECE",
"A  c #FCCCCC",
"S  c #FBCCCC",
"D  c #FBD2D2",
"F  c #FBD3D2",
"G  c #FCD0D0",
"H  c #FCD1D1",
"J  c #FCD2D2",
"K  c #FCD3D3",
"L  c #FCD5D5",
"P  c #FCD4D4",
"I  c #FCDBDA",
"U  c #FCDBDB",
"Y  c #FCDCDC",
"T  c #FCDDDD",
"R  c #FDDDDD",
"E  c #FCDEDE",
"W  c #FDDEDE",
"Q  c #FCDFDE",
"!  c #FCDFDF",
"~  c #FDDFDF",
"^  c #FCDADA",
"/  c #FDE0DF",
"(  c #FCE0E0",
")  c #FCE1E0",
"_  c #FDE1E0",
"`  c #FDE1E1",
"'  c #FDE2E1",
"]  c #FDE2E2",
"[  c #FDE4E3",
"{  c #FDE4E4",
"}  c #FDE5E5",
"|  c #FDE6E6",
" . c #FDE7E6",
".. c #FDE7E7",
"X. c #FDE3E3",
"o. c #FDE8E7",
"O. c #FDE9E9",
"+. c #FDEBEA",
"@. c #FDEBEB",
"#. c #FEEBEB",
"$. c #FEECEB",
"%. c #FDECEC",
"&. c #FDEDED",
"*. c #FEEDED",
"=. c #FDEEEE",
"-. c #FDEFEF",
";. c #FEEEEE",
":. c #FEEFEF",
">. c #FEEBEB",
",. c #FDF0F0",
"<. c #FEF0F0",
"1. c #FEF2F2",
"2. c #FEF3F3",
"3. c #FEF4F4",
"4. c #FEF5F4",
"5. c #FEF5F5",
"6. c #FEF6F5",
"7. c #FEF6F6",
"8. c #FEF7F6",
"9. c #FEF7F7",
"0. c #FEF3F3",
"q. c #FEF8F8",
"w. c #FEF9F8",
"e. c #FEF9F9",
"r. c #FFF9F9",
"t. c #FEFAFA",
"y. c #FFFAFA",
"u. c #FEFBFB",
"i. c #FFFBFB",
"p. c #FEFCFC",
"a. c #FFFCFC",
"s. c #FFFDFD",
"d. c #FFFEFE",
"f. c #FFFFFE",
"g. c #FFFFFF",
"h. c #FFFFFF",
/* pixels */
"g.g.g.g.g.g.g.g.g.g.g.g.g.g.g.g.g.g.g.g.g.g.g.g.g.g.g.g.g.g.g.g.g.g.g.g.g.g.g.g.g.g.g.g.g.g.g.g.g.g.g.g.g.g.g.g.g.g.g.g.",
"g.g.g.g.g.g.g.g.g.g.g.g.g.g.g.g.g.g.g.g.g.g.g.g.g.g.g.g.g.g.g.g.g.g.g.g.g.g.g.g.g.g.g.g.g.g.g.g.g.g.g.g.g.g.g.g.g.g.g.g.",
"g.g.g.g.g.g.g.g.g.g.g.g.g.g.g.g.g.g.g.g.g.g.g.g.g.g.g.g.g.g.g.g.g.g.g.g.g.g.g.g.g.g.g.g.g.g.g.g.g.g.g.g.g.g.g.g.g.g.g.g.",
"g.g.g.g.g.g.g.g.g.g.g.g.g.g.g.g.g.g.g.g.g.g.g.g.g.g.g.g.g.g.g.g.g.g.g.g.g.g.g.g.g.g.g.g.g.g.g.g.g.g.g.g.g.g.g.g.g.g.g.g.",
"g.g.g.g.g.g.g.g.g.g.g.g.g.g.g.g.g.g.g.g.g.g.g.g.g.g.g.g.g.g.g.g.g.g.g.g.g.g.g.g.g.g.g.g.g.g.g.g.g.g.g.g.g.g.g.g.g.g.g.g.",
"g.g.g.g.g.g.g.g.g.g.g.g.g.g.g.g.g.g.g.g.g.g.g.g.g.g.g.g.g.g.g.g.g.g.g.g.g.g.g.g.g.g.g.g.g.g.g.g.g.g.g.g.g.g.g.g.g.g.g.g.",
"g.g.g.g.g.g.g.g.g.g.g.g.g.g.g.g.g.g.g.g.g.g.g.g.g.g.g.g.g.g.g.g.g.g.g.g.g.g.g.g.g.g.g.g.g.g.g.g.g.g.g.g.g.g.g.g.g.g.g.g.",
"g.g.g.g.g.g.g.g.g.g.g.g.g.g.g.g.g.g.g.g.g.g.g.g.g.g.g.g.g.g.g.g.g.g.g.g.g.g.g.g.g.g.g.g.g.g.g.g.g.g.g.g.g.g.g.g.g.g.g.g.",
"g.g.g.g.g.g.g.g.g.g.g.g.g.g.g.g.g.g.g.g.g.g.g.g.g.g.g.g.g.g.g.g.g.g.g.g.g.g.g.g.g.g.g.g.g.g.g.g.g.g.g.g.g.g.g.g.g.g.g.g.",
"g.g.g.g.g.g.g.g.g.g.g.g.g.g.g.g.g.g.g.g.g.g.g.g.g.g.g.g.g.g.g.g.g.g.g.g.g.g.g.g.g.g.g.g.g.g.g.g.g.g.g.g.g.g.g.g.g.g.g.g.",
"g.g.g.g.g.g.g.g.g.g.g.g.g.g.g.g.g.g.g.g.g.g.g.g.g.g.g.g.g.g.g.g.g.g.g.g.g.g.g.g.g.g.g.g.g.g.g.g.g.g.g.g.g.g.g.g.g.g.g.g.",
"g.g.g.g.g.g.g.g.g.g.g.g.g.g.g.g.6.=...R R R ( ..=.6.g.g.g.g.g.g.g.g.6.=...( R R R ..=.6.g.g.g.g.g.g.g.g.g.g.g.g.g.g.g.g.",
"g.g.g.g.g.g.g.g.g.g.g.g.g.g.g.6.R z w 0 9 9 0 e b ( 6.g.g.g.g.g.g.6.( b r 0 9 9 0 w z R 1.g.g.g.g.g.g.g.g.g.g.g.g.g.g.g.",
"g.g.g.g.g.g.g.g.g.g.g.g.g.i.O.C w 5 , ; - - : < 8 w b [ 6.g.g.6...b w 8 < : - - ; > 4 q b ..6.g.g.g.g.g.g.g.g.g.g.g.g.g.",
"g.g.g.g.g.g.g.g.g.g.g.g.g.o.d 6 ; % # + + + + # % ; 3 e ( i.i.( t 3 ; % # + + + + # $ ; 5 y ..g.g.g.g.g.g.g.g.g.g.g.g.g.",
"g.g.g.g.g.g.g.g.g.g.g.i.=.z 4 - + .             . + & 1 u F F u 1 * + .               + = 4 z =.i.g.g.g.g.g.g.g.g.g.g.g.",
"g.g.g.g.g.g.g.g.g.g.g.1.C 9 = + .                 . O % , 8 8 < % O .                 . + = 9 b 1.g.g.g.g.g.g.g.g.g.g.g.",
"g.g.g.g.g.g.g.g.g.g.g.( q > #                         X % - - % X                         + > q ( g.g.g.g.g.g.g.g.g.g.g.",
"g.g.g.g.g.g.g.g.g.g.i.C 3 & O                         . X + + O .                         O & 3 C i.g.g.g.g.g.g.g.g.g.g.",
"g.g.g.g.g.g.g.g.g.a.1.d : + X                                                             . + : d =.i.g.g.g.g.g.g.g.g.g.",
"g.g.g.g.g.g.g.g.g.6.( q = X                                                                 X = q R 6.g.g.g.g.g.g.g.g.g.",
"g.g.g.g.g.g.g.g.g.1.L 9 % .                                                                 . % 9 J 1.g.g.g.g.g.g.g.g.g.",
"g.g.g.g.g.g.g.g.g.1.A 8 %                                                                     % 8 N 1.g.g.g.g.g.g.g.g.g.",
"g.g.g.g.g.g.g.g.g.=.b 6 $                                                                     $ 6 b =.g.g.g.g.g.g.g.g.g.",
"g.g.g.g.g.g.g.g.g.=.b 8 $                                                                     $ 8 b 1.g.g.g.g.g.g.g.g.g.",
"g.g.g.g.g.g.g.g.g.1.J 9 %                                                                     % 9 J 1.g.g.g.g.g.g.g.g.g.",
"g.g.g.g.g.g.g.g.g.6.R q = X                                                                 X = q R 6.g.g.g.g.g.g.g.g.g.",
"g.g.g.g.g.g.g.g.g.i.%.u ; + .                                                             . + ; u %.i.g.g.g.g.g.g.g.g.g.",
"g.g.g.g.g.g.g.g.g.g.i.b 1 % X                                                             X % 1 b i.g.g.g.g.g.g.g.g.g.g.",
"g.g.g.g.g.g.g.g.g.g.g.U 9 ; +                                                             + ; 9 ^ g.g.g.g.g.g.g.g.g.g.g.",
"g.g.g.g.g.g.g.g.g.g.g.O.j 3 $ .                                                         . $ 3 j O.g.g.g.g.g.g.g.g.g.g.g.",
"g.g.g.g.g.g.g.g.g.g.g.6.( w ; + .                                                     . + ; q R 6.g.g.g.g.g.g.g.g.g.g.g.",
"g.g.g.g.g.g.g.g.g.g.g.g.i.J 8 - +                                                     + - 8 J 6.g.g.g.g.g.g.g.g.g.g.g.g.",
"g.g.g.g.g.g.g.g.g.g.g.g.g.%.g 3 & X                                                 X % 3 d O.g.g.g.g.g.g.g.g.g.g.g.g.g.",
"g.g.g.g.g.g.g.g.g.g.g.g.g.i...p < % X                                             X % , y ..i.g.g.g.g.g.g.g.g.g.g.g.g.g.",
"g.g.g.g.g.g.g.g.g.g.g.g.g.g.g./ q , % X                                         X $ , q R g.g.g.g.g.g.g.g.g.g.g.g.g.g.g.",
"g.g.g.g.g.g.g.g.g.g.g.g.g.g.g.6.R e > $ X                                     X $ > e R 6.g.g.g.g.g.g.g.g.g.g.g.g.g.g.g.",
"g.g.g.g.g.g.g.g.g.g.g.g.g.g.g.g.i.R q > $ X                                 X $ > 0 ^ i.g.g.g.g.g.g.g.g.g.g.g.g.g.g.g.g.",
"g.g.g.g.g.g.g.g.g.g.g.g.g.g.g.g.g.6.R e , % X                             X % , e ^ 1.g.g.g.g.g.g.g.g.g.g.g.g.g.g.g.g.g.",
"g.g.g.g.g.g.g.g.g.g.g.g.g.g.g.g.g.g.i.R q , % O .                     . O % , q R i.g.g.g.g.g.g.g.g.g.g.g.g.g.g.g.g.g.g.",
"g.g.g.g.g.g.g.g.g.g.g.g.g.g.g.g.g.g.g.6.R u 1 & O                     + & 1 u R 6.g.g.g.g.g.g.g.g.g.g.g.g.g.g.g.g.g.g.g.",
"g.g.g.g.g.g.g.g.g.g.g.g.g.g.g.g.g.g.g.g.g.( r 2 & + X             X + & 2 e ( g.g.g.g.g.g.g.g.g.g.g.g.g.g.g.g.g.g.g.g.g.",
"g.g.g.g.g.g.g.g.g.g.g.g.g.g.g.g.g.g.g.g.g.6...j 4 - + .           + - 4 j ..6.g.g.g.g.g.g.g.g.g.g.g.g.g.g.g.g.g.g.g.g.g.",
"g.g.g.g.g.g.g.g.g.g.g.g.g.g.g.g.g.g.g.g.g.g.g.O.j 8 - # X     X # - 8 j O.g.g.g.g.g.g.g.g.g.g.g.g.g.g.g.g.g.g.g.g.g.g.g.",
"g.g.g.g.g.g.g.g.g.g.g.g.g.g.g.g.g.g.g.g.g.g.g.i.=.M 9 : # X X # : 9 M =.i.g.g.g.g.g.g.g.g.g.g.g.g.g.g.g.g.g.g.g.g.g.g.g.",
"g.g.g.g.g.g.g.g.g.g.g.g.g.g.g.g.g.g.g.g.g.g.g.g.g.1.C 0 : & & : 0 C 1.g.g.g.g.g.g.g.g.g.g.g.g.g.g.g.g.g.g.g.g.g.g.g.g.g.",
"g.g.g.g.g.g.g.g.g.g.g.g.g.g.g.g.g.g.g.g.g.g.g.g.g.g.1.L q 7 7 q L 1.g.g.g.g.g.g.g.g.g.g.g.g.g.g.g.g.g.g.g.g.g.g.g.g.g.g.",
"g.g.g.g.g.g.g.g.g.g.g.g.g.g.g.g.g.g.g.g.g.g.g.g.g.g.g.6.^ N N ^ 6.g.g.g.g.g.g.g.g.g.g.g.g.g.g.g.g.g.g.g.g.g.g.g.g.g.g.g.",
"g.g.g.g.g.g.g.g.g.g.g.g.g.g.g.g.g.g.g.g.g.g.g.g.g.g.g.g.6.1.-.6.g.g.g.g.g.g.g.g.g.g.g.g.g.g.g.g.g.g.g.g.g.g.g.g.g.g.g.g.",
"g.g.g.g.g.g.g.g.g.g.g.g.g.g.g.g.g.g.g.g.g.g.g.g.g.g.g.g.g.g.g.g.g.g.g.g.g.g.g.g.g.g.g.g.g.g.g.g.g.g.g.g.g.g.g.g.g.g.g.g.",
"g.g.g.g.g.g.g.g.g.g.g.g.g.g.g.g.g.g.g.g.g.g.g.g.g.g.g.g.g.g.g.g.g.g.g.g.g.g.g.g.g.g.g.g.g.g.g.g.g.g.g.g.g.g.g.g.g.g.g.g.",
"g.g.g.g.g.g.g.g.g.g.g.g.g.g.g.g.g.g.g.g.g.g.g.g.g.g.g.g.g.g.g.g.g.g.g.g.g.g.g.g.g.g.g.g.g.g.g.g.g.g.g.g.g.g.g.g.g.g.g.g.",
"g.g.g.g.g.g.g.g.g.g.g.g.g.g.g.g.g.g.g.g.g.g.g.g.g.g.g.g.g.g.g.g.g.g.g.g.g.g.g.g.g.g.g.g.g.g.g.g.g.g.g.g.g.g.g.g.g.g.g.g.",
"g.g.g.g.g.g.g.g.g.g.g.g.g.g.g.g.g.g.g.g.g.g.g.g.g.g.g.g.g.g.g.g.g.g.g.g.g.g.g.g.g.g.g.g.g.g.g.g.g.g.g.g.g.g.g.g.g.g.g.g.",
"g.g.g.g.g.g.g.g.g.g.g.g.g.g.g.g.g.g.g.g.g.g.g.g.g.g.g.g.g.g.g.g.g.g.g.g.g.g.g.g.g.g.g.g.g.g.g.g.g.g.g.g.g.g.g.g.g.g.g.g.",
"g.g.g.g.g.g.g.g.g.g.g.g.g.g.g.g.g.g.g.g.g.g.g.g.g.g.g.g.g.g.g.g.g.g.g.g.g.g.g.g.g.g.g.g.g.g.g.g.g.g.g.g.g.g.g.g.g.g.g.g.",
"g.g.g.g.g.g.g.g.g.g.g.g.g.g.g.g.g.g.g.g.g.g.g.g.g.g.g.g.g.g.g.g.g.g.g.g.g.g.g.g.g.g.g.g.g.g.g.g.g.g.g.g.g.g.g.g.g.g.g.g.",
"g.g.g.g.g.g.g.g.g.g.g.g.g.g.g.g.g.g.g.g.g.g.g.g.g.g.g.g.g.g.g.g.g.g.g.g.g.g.g.g.g.g.g.g.g.g.g.g.g.g.g.g.g.g.g.g.g.g.g.g.",
"g.g.g.g.g.g.g.g.g.g.g.g.g.g.g.g.g.g.g.g.g.g.g.g.g.g.g.g.g.g.g.g.g.g.g.g.g.g.g.g.g.g.g.g.g.g.g.g.g.g.g.g.g.g.g.g.g.g.g.g.",
"g.g.g.g.g.g.g.g.g.g.g.g.g.g.g.g.g.g.g.g.g.g.g.g.g.g.g.g.g.g.g.g.g.g.g.g.g.g.g.g.g.g.g.g.g.g.g.g.g.g.g.g.g.g.g.g.g.g.g.g."
};
