/* XPM */
static char *wall[] = {
/* columns rows colors chars-per-pixel */
"60 60 144 2 ",
"   c None",
".  c #010000",
"X  c #0D0504",
"o  c #0F0806",
"O  c #110705",
"+  c #140907",
"@  c #150A08",
"#  c #1B0C09",
"$  c #240E0C",
"%  c #27110E",
"&  c #2B110E",
"*  c #2C1510",
"=  c #321712",
"-  c #3D1613",
";  c #351A14",
":  c #3E1B16",
">  c #3F1F18",
",  c #411814",
"<  c #4A1816",
"1  c #421F18",
"2  c #4E1D19",
"3  c #501E19",
"4  c #422019",
"5  c #4B241C",
"6  c #50271E",
"7  c #5A221D",
"8  c #5E2A21",
"9  c #662720",
"0  c #6A2320",
"q  c #612C23",
"w  c #6E2A23",
"e  c #712B24",
"r  c #792B25",
"t  c #643126",
"y  c #683227",
"u  c #693328",
"i  c #743329",
"p  c #78352A",
"a  c #773A2D",
"s  c #7B3C2F",
"d  c #7E3D30",
"f  c #823129",
"g  c #8B352C",
"h  c #81392E",
"j  c #90352D",
"k  c #9D342F",
"l  c #94382F",
"z  c #873C30",
"x  c #8E3F32",
"c  c #973930",
"v  c #9B3B31",
"b  c #A53E34",
"n  c #874133",
"m  c #954235",
"M  c #994537",
"N  c #9D4C3B",
"B  c #AE4237",
"V  c #A14E3D",
"C  c #AE4D3E",
"Z  c #B44439",
"A  c #BB473B",
"S  c #BF483C",
"D  c #B4503F",
"F  c #C24A3D",
"G  c #C84C3F",
"H  c #B55241",
"J  c #BE5443",
"K  c #B95A46",
"L  c #BE5C48",
"P  c #CC4D40",
"I  c #D24F42",
"U  c #C05644",
"Y  c #C25846",
"T  c #C25E49",
"R  c #D35042",
"E  c #D35E4B",
"W  c #C5604B",
"Q  c #CA624C",
"!  c #CC634D",
"~  c #CE644E",
"^  c #CA624C",
"/  c #D8604C",
"(  c #D9604D",
")  c #DA614D",
"_  c #DB614D",
"`  c #D9624D",
"'  c #D9624E",
"]  c #DC624E",
"[  c #DD624E",
"{  c #DE624E",
"}  c #DF634F",
"|  c #DF644F",
" . c #DD624E",
".. c #DF6450",
"X. c #D76851",
"o. c #E0634F",
"O. c #E1644F",
"+. c #E0634F",
"@. c #E16450",
"#. c #E06550",
"$. c #E16550",
"%. c #E26450",
"&. c #E16751",
"*. c #E26651",
"=. c #E46551",
"-. c #E26651",
";. c #E06953",
":. c #E36852",
">. c #E56953",
",. c #E06D55",
"<. c #E36E56",
"1. c #E56C55",
"2. c #E66C55",
"3. c #E76D55",
"4. c #E46D56",
"5. c #E46F56",
"6. c #E46F57",
"7. c #E56F57",
"8. c #E66F57",
"9. c #E56F56",
"0. c #E86D56",
"q. c #E67057",
"w. c #E77058",
"e. c #E77058",
"r. c #E87058",
"t. c #E97058",
"y. c #E87158",
"u. c #E97158",
"i. c #EA7058",
"p. c #EB7158",
"a. c #EA7259",
"s. c #EB7259",
"d. c #EC7259",
"f. c #ED7259",
"g. c #ED735A",
"h. c #EE735A",
"j. c #EE745A",
"k. c #EF745A",
"l. c #EF745B",
"z. c #EB7259",
"x. c #F0745B",
"c. c #F1755B",
"v. c #F3765C",
"b. c #F1755B",
/* pixels */
"  . . . . . . . . . . . . #     . . . . . . . . . . . . . . . . . . . . . . . . . . . .     # . . . . . . . . . . . .   ",
". O : : : : : 1 4 4 4 1 + # A 7 . = : : 1 : 1 4 1 1 > > > > 1 1 4 4 4 4 1 1 1 1 4 4 ; . 7 A # O : : : : : 1 4 4 4 1 + . ",
". : E / / E / 4.q.q.q.<.5 X B 2 X C / / / / ;.4.4.4.4.4.4.4.4.4.q.q.4.4.4.4.4.4.4.t.K X 2 B O 1 E / / E / 4.4.4.q.<.> . ",
". : / { { { | t.g.g.g.t.5 X B 2 X D o.{ { { 4.t.t.t.t.t.t.t.t.t.g.g.g.t.t.t.t.t.t.h.L X 2 B O 4 / { { { | t.g.t.g.q.4 . ",
". : / { { { | t.t.t.g.t.5 X B 2 X D { { { { 4.t.t.t.t.t.t.t.t.t.t.t.t.t.t.t.t.t.t.g.L X 2 B O 4 / { { { | t.t.t.t.4.4 . ",
"X i { { { { | t.t.t.g.t.5 X B 2 X D { { { { 4.t.g.t.t.t.t.t.t.t.t.t.t.t.t.t.t.t.t.g.L X 2 B O 4 / { { { | t.t.t.t.4.4 . ",
"  / { { { { | t.t.t.t.t.5 X B 2 X D o.{ { { 4.t.t.t.t.t.t.t.t.g.t.t.g.g.t.g.t.t.t.h.L X 2 B X 4 / { { { ..t.t.t.g.4.4 . ",
"  { { { { { | t.t.t.t.t.5 X B 2 X D { { { { 4.t.t.t.t.g.g.t.t.g.t.g.g.g.g.g.t.t.t.h.L X 2 B X 4 / { { { ..t.t.t.g.4.4 . ",
"# z { { { { | t.t.t.t.t.5 X B 2 X D o.{ { { 4.g.t.g.t.t.t.t.t.t.t.t.t.t.t.t.t.t.t.g.L X 2 B O 4 / { { { ..t.g.t.t.4.4 . ",
". : / { { { | t.t.t.t.t.5 X B 2 X D o.{ { { 4.g.g.g.t.t.t.t.g.t.g.g.t.t.t.t.g.g.t.g.L X 2 B O 4 / { { { ..t.t.t.t.4.4 . ",
". : E { { { { t.t.t.t.t.5 X B 2 X D o.{ { { 4.g.g.t.t.t.g.g.t.t.g.g.g.g.t.t.t.g.t.g.L X 2 B X 4 / { { { ..t.g.g.g.q.4 . ",
". : / { { { @.t.h.g.g.t.5 X B 2 X H O.{ { { 0.h.h.h.h.h.h.h.h.h.g.g.g.g.g.g.g.h.g.c.T X 2 B X 4 { { { { @.g.g.g.h.w.4 . ",
". # 8 8 8 8 q t t t t t # @ Z 7 . 5 q 8 8 8 q t t t t t t t t t t t t t t t t t t t 6 . 7 Z + # 8 8 8 8 q t t t t t # . ",
"X X . . . . . . . . . . X 9 P v $ . . . . . . . . . . . . . . . . . . . . . . . . . . $ v P 9 X . . . . . . . . . . X X ",
"  k j j j j j c c c c c b G P P Z c c c c c c c c c c v b v v v v c c c c c c c c c c Z P P G b c c c c c c c c c c b   ",
"  < - - - - - , , , , , , - - - - , , , , , , , , , , < g P P g < , , , , , , , , , , : - - - , , , , , , , , , , , 2   ",
". . + + @ @ @ @ @ @ @ @ @ @ @ @ @ @ @ @ @ @ @ @ @ @ @ X O B B O . + + + + + @ @ @ @ @ @ @ @ @ @ @ @ @ @ @ @ @ @ @ @ . . ",
". = H J U J U Q Q Q Q Q Q Q Q Q Q Q Q Q Q Q Q Q Q Q ~ u . j j . q U J J J Y Q Q Q Q Q Q Q Q Q Q Q Q Q Q Q ! ! ~ Q W ; . ",
". : / { { { @.t.g.g.g.g.g.g.h.h.g.g.g.g.h.h.h.h.g.g.c.s . j j . p @.{ { { ;.g.g.g.g.g.g.h.h.h.g.g.g.g.g.h.g.h.h.g.w.4 . ",
". : / { { { | t.t.t.t.t.t.t.g.g.t.t.t.t.g.g.g.t.t.t.h.s . j j . i o.{ { { @.t.t.t.t.t.t.g.g.t.t.t.t.t.t.t.t.g.g.t.4.4 . ",
". : / { { { | t.t.t.t.t.t.t.t.g.t.t.g.g.g.g.t.t.t.t.h.s . j j . p O.{ { { @.t.t.t.t.g.g.g.g.t.t.t.t.t.t.t.t.t.t.t.4.4 . ",
". : / { { { | t.t.t.t.t.t.t.g.g.t.t.t.t.t.g.t.t.t.t.h.s . j j . p @.{ { { @.t.t.t.t.t.t.g.g.t.t.t.t.t.t.t.t.t.t.t.4.4 . ",
". : / { { { ..t.g.g.t.t.t.t.t.t.t.t.t.g.t.t.t.t.t.t.h.s . j j . p @.{ { { @.t.t.t.t.t.t.t.t.t.t.g.g.t.t.t.t.t.t.g.q.4 . ",
". : / { { { ..t.g.t.t.t.t.t.t.t.t.t.t.g.t.t.t.t.t.t.h.s . j j . p @.{ { { @.t.t.t.t.t.g.t.t.t.t.g.g.t.t.t.t.t.t.g.q.4 . ",
". : / { { { | t.t.t.t.t.t.t.t.t.t.t.t.t.t.t.t.t.t.t.h.s . j j . i o.{ { { @.t.t.t.t.t.t.t.t.t.t.g.g.t.t.t.t.t.t.t.4.4 . ",
". : / { { { | t.t.t.t.t.t.t.t.g.t.t.t.g.t.t.t.t.t.t.h.s . j j . p O.{ { { @.t.t.t.t.t.g.t.t.t.t.g.g.t.t.t.t.t.t.t.4.4 . ",
". : / O.O.o.@.g.h.h.h.h.h.c.c.c.h.h.h.h.h.h.h.h.h.h.v.d . j j . p =.O.O.o.>.h.h.h.h.c.c.h.h.h.h.h.h.h.h.c.c.h.h.h.t.4 . ",
". % x m m m m N N N N N N N N N N N N N N N N N N N V 6 . l l . 5 m m m m M N N N N N N N N N N N N N N N N N N N M * . ",
". . . . . . . . . . . . . . . . . . . . . . . . . . . . $ Z Z $ . . . . . . . . . . . . . . . . . . . . . . . . . . . . ",
"  r 0 0 0 0 0 e e e e e e e w w e e e e e e e e e e e r B R R B r e e e w w e e e e e e w w w e e e e e e e e e e e f   ",
"  r 0 0 0 0 0 e e e e e f A R P c e e e e e e e e e e e e w w e e e e g P R Z r e e e c P R A f e e e e e e e e e e f   ",
". . . . . . . . . . . . . < G f X . . . . . . . . . . . . . . . . . . # U @.h . . . . X f G < . . . . . . . . . . . . . ",
". % m m m m m N N N N N = O Z 3 . p m m m m M N N N N N N N N N N N N K w.h.X.V N V d . 3 Z O * m m m m m N N N N M * . ",
". : / O.O.o.@.g.h.h.h.g.5 X B 2 X H @.O.O.O.0.h.h.h.h.h.h.h.h.h.h.h.h.h.g.t.g.h.h.v.T X 2 B X 5 { O.O.o.@.g.h.h.c.t.4 . ",
". : E { { { | t.t.t.t.t.5 X B 2 X D { { { { 4.t.t.t.t.t.t.t.g.g.t.t.t.t.t.t.g.g.t.h.L X 2 B X 4 / { { { | t.t.t.g.q.4 . ",
". : / { { { | t.t.t.t.t.5 X B 2 X D { { { { 4.g.t.t.t.t.t.t.t.g.t.t.t.t.t.t.t.g.t.h.L X 2 B X 4 / { { { ..t.t.t.t.q.4 . ",
". : / { { { | t.t.t.t.t.5 X B 2 X D o.{ { { 4.t.t.t.t.t.t.t.g.g.t.t.t.t.t.t.g.g.t.g.L X 2 B O 1 / { { { ..t.t.t.t.q.4 . ",
". : / { { { | t.t.t.t.t.5 X B 2 X D o.{ { { 4.t.t.t.t.g.t.t.g.t.t.t.g.g.t.t.t.t.t.g.L X 2 B O 1 / { { { ..t.t.t.t.q.4 . ",
". : / { { { | t.g.t.t.t.5 X B 2 X D o.{ { { 4.t.t.g.g.g.t.t.t.t.t.g.g.g.t.t.t.t.t.g.L X 2 B O 1 / { { { ..t.t.t.t.4.4 . ",
". : / { { { | t.t.t.t.t.5 X B 2 X D o.{ { { 4.t.t.g.g.g.t.t.t.t.t.g.g.g.t.t.t.t.t.h.L X 2 B O 1 / { { { ..t.t.t.t.4.4 . ",
". : / { { { { t.t.t.g.t.5 X B 2 X H o.{ { { 4.t.t.t.t.t.t.t.t.t.t.t.t.t.t.t.g.g.t.h.L X 2 B X 4 / { { { | t.t.t.t.4.4 . ",
". : / { { { @.g.h.h.h.t.5 X B 2 X H @.{ { { 0.g.g.g.g.g.g.g.g.g.g.g.g.g.g.g.g.g.g.c.T X 2 B X 4 { o.o.{ @.g.g.g.g.t.4 . ",
". = H J J J U Q Q Q Q Q > O B 2 X M U J J J T Q Q Q Q Q Q Q Q Q Q Q Q Q Q Q ! ! ! ~ V X 2 B O : J U J J U Q Q Q Q W ; . ",
". . + + + + @ @ @ @ @ @ . & F e . X + + + + @ @ @ @ @ @ @ @ @ @ @ @ @ @ @ @ @ # @ @ o . e F & . + + + + + @ @ @ @ @ . . ",
"  < - - - - - , , , , , 3 b R F w , , , , , , , , , , , - - - : , , , , , , , , , , , w F R b 3 , , , , , , , , , , 2   ",
"  k j j j j j c c c c c v v v v v c c c c c c c c c c v S P P S v c c c c c c c c c c v v v v v c c c c c c c c c c B   ",
"X X . . . . . . . . . . . . . . . . . . . . . . . . . X < F F < X . . . . . . . . . . . . . . . . . . . . . . . . . X X ",
". # 8 8 8 8 q t t t t t t t t t t t t t t t t y u t t = . c c . * q q q q q t t t t t t t t t t t t t t t t t t t t # . ",
". : / { { { @.t.h.h.h.h.g.g.g.g.g.g.g.g.g.g.h.h.g.g.c.s . j j . p @.{ { { @.g.g.h.h.g.g.g.g.g.g.g.g.g.g.g.h.h.h.g.w.4 . ",
". : E { { { | t.g.g.g.t.t.t.t.t.g.g.t.t.t.t.g.g.t.t.h.s . j j . p O.{ { { @.t.t.g.g.t.t.t.t.t.t.g.g.t.t.t.t.g.g.t.q.4 . ",
". : / { { { | t.g.g.t.t.t.t.t.t.g.t.t.t.t.t.g.t.t.t.h.s . j j . p O.{ { { @.t.t.g.g.t.t.t.t.t.t.t.t.t.t.t.t.g.t.g.q.4 . ",
". : / { { { | t.t.t.t.t.t.t.t.t.t.t.t.t.t.t.t.t.t.t.h.s . j j . p O.{ { { @.t.t.g.g.t.t.t.t.t.t.t.t.t.t.t.t.t.t.g.q.4 . ",
". : / { { { | t.t.t.t.t.g.t.t.t.t.t.t.t.t.t.t.t.t.t.h.s . j j . p @.{ { { @.t.t.t.t.t.t.g.t.t.t.t.t.t.t.t.t.t.t.t.4.4 . ",
". : / { { { | t.t.t.t.t.g.t.t.t.t.t.t.t.t.t.t.t.t.t.h.s . j j . p @.{ { { @.t.t.t.t.t.t.t.t.t.t.t.t.t.t.t.t.t.t.t.4.4 . ",
". : / { { { | t.g.t.g.t.t.t.t.t.t.t.t.t.g.g.t.g.t.t.h.s . j j . p O.{ { { @.t.t.t.t.g.g.t.t.t.t.t.t.t.t.g.g.t.g.t.4.4 . ",
". : / { { { | t.g.t.t.g.g.t.t.t.t.t.t.t.g.g.g.g.t.t.h.s . j j . i O.{ { { @.t.t.t.t.g.g.g.g.t.t.t.t.t.t.g.g.g.g.t.4.4 . ",
". : / { { { | t.t.t.t.t.t.t.t.t.g.g.g.g.t.t.t.t.t.t.h.s . j j . p O.{ { { @.t.t.t.t.t.t.t.t.t.t.g.g.g.g.t.t.t.t.t.q.4 . ",
". : E / / { | t.t.q.4.4.4.4.4.4.q.q.q.4.4.4.4.4.q.q.t.a . j j . i / / / / | 4.4.4.4.4.4.4.4.4.4.q.q.q.q.4.4.4.4.q...> . ",
". O : : : p / 4.n 4 4 4 1 1 1 1 1 1 1 > > 1 4 4 4 4 4 % . v v . # : : : : : 4 1 4 4 > > > > 1 1 1 1 4 4 1 1 1 4 4 > + . ",
"  . . . . X     @ . . . . . . . . . . . . . . . . . . . X     X . . . . . . . . . . . . . . . . . . . . . . . . . . .   "
};
