/* XPM */
static char *exit[] = {
/* columns rows colors chars-per-pixel */
"60 60 170 2 ",
"   c #25547F",
".  c #28557F",
"X  c #B4AF73",
"o  c #B5B073",
"O  c #B9B172",
"+  c #DFBD5C",
"@  c #E0BF5E",
"#  c #CBB86A",
"$  c #D1BA66",
"%  c #CDBF7F",
"&  c #E8C157",
"*  c #E2C05D",
"=  c #E8C259",
"-  c #275680",
";  c #285680",
":  c #2B5983",
">  c #2C5E89",
",  c #315D85",
"<  c #2E638E",
"1  c #336284",
"2  c #376288",
"3  c #3C668B",
"4  c #3F7585",
"5  c #2F6795",
"6  c #2F6D9D",
"7  c #306D9C",
"8  c #2F79AC",
"9  c #3073A4",
"0  c #3077A9",
"q  c #3279AB",
"w  c #2E7DB4",
"e  c #267FBA",
"r  c #287FBB",
"t  c #40698D",
"y  c #457C85",
"u  c #466D90",
"i  c #4F7597",
"p  c #577B9B",
"a  c #2D80B5",
"s  c #2780BB",
"d  c #2981BA",
"f  c #3183B5",
"g  c #3A86B2",
"h  c #3486BC",
"j  c #3989BE",
"k  c #498186",
"l  c #4F8B87",
"z  c #518E87",
"x  c #549386",
"c  c #579985",
"v  c #589986",
"b  c #589887",
"n  c #5C809D",
"m  c #5E929F",
"M  c #63949C",
"N  c #6F9898",
"B  c #739995",
"V  c #5EA187",
"C  c #66AE88",
"Z  c #62AB86",
"A  c #6EBE86",
"S  c #6BB489",
"D  c #67B187",
"F  c #70BE87",
"G  c #70B58E",
"H  c #76B894",
"J  c #4187AA",
"K  c #4489AB",
"L  c #4A8BAA",
"P  c #508EA6",
"I  c #5C91A0",
"U  c #5194BC",
"Y  c #6384A2",
"T  c #6D8CA8",
"R  c #698AA5",
"E  c #779FA7",
"W  c #7896AE",
"Q  c #7C99B1",
"!  c #74A3A0",
"~  c #6FC284",
"^  c #71C385",
"/  c #75C489",
"(  c #7AC68D",
")  c #7DC790",
"_  c #428EC1",
"`  c #4892C2",
"'  c #599BC8",
"]  c #5197C5",
"[  c #63A3CC",
"{  c #6AA6CA",
"}  c #77AAC1",
"|  c #7BB0D2",
" . c #879F87",
".. c #8FA386",
"X. c #89A189",
"o. c #87A087",
"O. c #91A487",
"+. c #98A683",
"@. c #84BE9F",
"#. c #849FB5",
"$. c #8AA5B8",
"%. c #92AABE",
"&. c #8EB1B6",
"*. c #A9BBAA",
"=. c #8BCD9C",
"-. c #8FD09F",
";. c #90D09F",
":. c #8CC2A6",
">. c #95D2A4",
",. c #98D3A6",
"<. c #9BC7B3",
"1. c #A5C8BE",
"2. c #A4C7BE",
"3. c #BDC8B4",
"4. c #A6D8B3",
"5. c #A8D9B4",
"6. c #B2DDBE",
"7. c #DCCD91",
"8. c #C8C59A",
"9. c #E2CC87",
"0. c #EAD28B",
"q. c #9CB2C3",
"w. c #8AB9D7",
"e. c #90BDDA",
"r. c #A7BACA",
"t. c #9EC5DE",
"y. c #B6DDC2",
"u. c #BADBC8",
"i. c #A1C4D7",
"p. c #B7E0C1",
"a. c #B9E0C3",
"s. c #BFE2C8",
"d. c #C4D2DC",
"f. c #CBDEDB",
"g. c #C7D8DA",
"h. c #C6E6CF",
"j. c #CAE8D1",
"k. c #C9E7D1",
"l. c #D1EBD7",
"z. c #D5ECDB",
"x. c #D8EFDD",
"c. c #F7F0D9",
"v. c #CDDCE3",
"b. c #C6DEEC",
"n. c #CCD7E0",
"m. c #D0DBE2",
"M. c #CCE1ED",
"N. c #DBE4E9",
"B. c #D8E1E7",
"V. c #DCF0E1",
"C. c #D9E9F1",
"Z. c #E2EAEF",
"A. c #E4F3E8",
"S. c #E9F5EC",
"D. c #E1F2E5",
"F. c #E6ECF0",
"G. c #E6F0F6",
"H. c #ECF1F2",
"J. c #ECF4F8",
"K. c #F4FAF5",
"L. c #F9F8F0",
"P. c #F9FAFC",
"I. c #FAFBFC",
"U. c #FBFDFC",
"Y. c #FCFEFD",
"T. c #FFFFFF",
"R. c #FEFFFE",
"E. c #FDFDFE",
"W. c #FFFFFF",
"Q. c #F7FCF8",
/* pixels */
"T.T.T.T.T.T.T.T.T.T.T.T.T.T.T.T.T.T.T.T.T.T.T.T.T.T.T.T.T.T.T.T.T.T.T.T.T.T.T.T.T.T.T.T.T.T.T.T.T.T.T.T.T.T.T.T.T.T.T.T.",
"T.T.T.T.T.T.T.T.T.T.T.T.T.T.T.T.T.T.T.T.T.T.T.T.T.T.T.T.T.T.T.T.T.T.T.T.T.T.T.T.T.T.T.T.T.T.T.T.T.T.T.T.T.T.T.T.T.T.T.T.",
"T.T.T.T.T.T.T.T.T.T.T.T.T.T.T.T.T.T.T.T.T.T.T.T.T.T.T.T.T.T.T.T.T.T.T.T.T.T.T.T.T.T.T.T.T.T.T.T.T.T.T.T.T.T.T.T.T.T.T.T.",
"T.T.T.T.T.T.T.T.T.T.T.T.T.T.T.T.T.T.T.T.T.T.T.T.T.T.T.T.T.T.T.T.T.T.T.T.T.T.T.T.T.T.T.T.T.T.T.T.T.T.T.T.T.T.T.T.T.T.T.T.",
"T.T.T.T.T.T.T.T.T.T.T.T.T.T.T.T.T.T.T.T.T.T.T.T.T.T.T.T.T.T.T.T.T.T.T.T.T.T.T.T.T.T.T.T.T.T.T.T.T.T.T.T.T.T.T.T.T.T.T.T.",
"T.T.T.T.T.T.T.T.T.T.T.T.T.T.U.I.I.I.I.I.I.I.I.I.I.I.I.I.I.I.I.I.I.I.P.P.I.I.I.I.I.I.I.I.I.U.T.T.T.T.T.T.T.T.T.T.T.T.T.T.",
"T.T.T.T.T.T.T.T.T.T.H.d.q.Q T Y Y Y Y Y Y Y Y Y Y Y Y Y Y Y Y Y Y Y Y Y Y Y Y Y Y Y Y Y Y T Q q.d.H.T.T.T.T.T.T.T.T.T.T.",
"T.T.T.T.T.T.T.T.B.$.i , .                                                                     . , i $.B.T.T.T.T.T.T.T.T.",
"T.T.T.T.T.T.H.%.t . . - - - - ; ; - ; ; ; ; ; ; - - - - - - ; ; ; ; ; ; ; ; ; ; - - ; ; - ; - - - . . t %.H.T.T.T.T.T.T.",
"T.T.T.T.T.m.n . - - - - - - ; ; ; ; ; ; ; ; ; ; ; ; ; ; ; ; ; ; ; ; ; ; ; ; ; ; ; ; ; - - ; ; ; ; ; - . . n m.T.T.T.T.T.",
"T.T.T.T.d.u   - - - - ; - - - - - - - ; ; ; ; ; ; ; ; ; ; ; ; ; ; ; ; ; ; ; ; ; ; - - - - - ; ; - - - - -   u d.T.T.T.T.",
"T.T.T.n.u   ; - - - - - - - - - 1 y x v c c c c c c c c c c c c c c c c c c c c v x y 1 - ; - - - - - - ; ; . u n.T.T.T.",
"T.T.F.p   - - ; - - - ; - - : y C ^ ^ ^ ^ ^ ^ ^ ^ ^ ^ ^ ^ ^ ^ ^ ^ ^ ^ ^ ^ ^ ^ ^ ^ ^ ^ C y : - - - - ; - ; - -   p F.T.T.",
"T.T.#.. - - - - - - - ; - : l F ^ ^ ^ ^ ^ ^ ^ ^ ^ ^ ^ ^ ^ ^ ^ ^ ^ ^ ^ ^ ^ ^ ^ ^ ^ ^ ^ ^ A l : - - - - ; - - - - . $.T.T.",
"T.g.2 . ; ; - - - ; ; ; - y A ^ ~ ~ ~ ~ ^ ~ ~ ~ ~ ~ ^ ^ ^ ^ ~ ~ ^ ~ ^ ^ ~ ^ ~ ~ ~ ~ ~ ~ ~ A y . - - ; - - ; ; ; - 2 n.T.",
"U.W   ; ; ; - - ; ; - . 3 2.a.a.a.a.a.a.a.a.a.a.a.a.a.a.a.a.a.a.a.a.a.a.a.a.a.a.a.a.a.a.a.a.1.3 - - ; ; - ; ; ; ;   W U.",
"B.t . - - - ; - ; - -   T T.T.T.T.T.T.T.T.T.T.T.T.T.T.T.T.T.T.T.T.T.T.T.T.T.T.T.T.T.T.T.T.T.T.T   ; ; - ; - - - - . t B.",
"q.: - - - ; ; ; - - - . E j.h.h.h.h.h.h.h.h.h.h.h.h.h.h.h.h.h.h.h.j.K.T.z.h.h.h.h.h.h.h.h.h.h.E . ; ; ; ; - ; ; - - : r.",
"R . - ; - ; ; ; - ; - - x ~ ~ ~ ~ ~ ^ ^ ^ ^ ^ ^ ^ ^ ^ ^ ^ ^ ^ ^ ~ ( A.U.>.~ ^ ^ ^ ^ ^ ^ ^ ^ ^ b - - - ; ; ; ; ; - ; . R ",
"u - - - ; ; ; ; - ; - ; ! 5.4.4.4.=.^ ^ ^ ^ ^ ^ ^ ^ ^ ^ ^ ^ ^ ^ ^ ( A.T.,.~ ^ ^ ^ ^ ^ ^ ^ ^ ^ b - ; ; - ; - ; ; - ; - u ",
", - - - ; ; ; ; - - - . r.T.T.T.T.H.,.~ ^ ^ ^ ^ ^ ^ ^ ^ ^ ^ ^ ^ ^ ( A.T.,.~ ^ ^ ^ ^ ^ ^ ^ ^ ^ b - - - - ; - - - - - - 1 ",
": - - - ; - - ; - - - . $.x.z.z.S.T.h.^ ^ ^ ^ ^ ^ ^ ^ ^ ^ ^ ^ ^ ^ ( A.T.>.~ ^ ^ ^ ^ ^ ^ ^ ^ ^ x - - - - ; ; ; ; - - - : ",
"; - - - - - - ; - ; - - k / / ^ a.T.z.) ^ ^ ^ ^ ^ ^ ^ ^ ^ ^ ^ ^ ^ =.S.T.4.^ ^ ^ ^ ^ ^ ^ ^ ^ ^ k - - - - ; ; ; ; ; ; - ; ",
": - ; ; - - - - - - ; - 1 S ^ ~ p.T.U.D.4./ ^ ^ ^ ^ ^ ^ ^ ^ ~ ( y.S.T.T.K.j.=.^ ^ ^ ^ ^ ^ ^ S 2 - - - - ; ; ; ; ; ; - : ",
"> - ; ; ; ; ; ; - ; - - ; z ^ ~ p.T.T.T.I.6.^ ^ ^ ^ ^ ^ ^ ^ ( k.T.T.T.T.T.T.A.=.~ ^ ^ ^ ^ ^ z ; - - - ; ; - ; ; ; - - > ",
"< ; ; ; ; ; ; ; ; - ; ; - : V ^ p.T.z.s.U.K.>.~ ^ ^ ^ ^ ^ ~ 5.T.K.6.S.T.a.V.T.l./ ^ ^ ^ ^ V : - - - - - ; - ; ; - ; - < ",
"7 ; ; ; ; ; - ; ; ; - ; ; - 1 b y.T.j./ l.T.h.^ ^ ^ ^ ^ ^ / V.T.p.( A.T.>.;.K.K.-.^ ^ F v 1 - ; ; ; ; - ; - ; ; ; ; ; 7 ",
"0 : - ; ; ; ; ; ; ; - ; ; ; - : n r.1.D <.Z.u.S S S S S S H f.N.@.G g.N.:.S g.N.:.Z b 4 : - ; ; ; ; ; ; ; ; - ; ; ; : 0 ",
"w < - ; - ; ; - ; ; ; - ; - ; - . ; , 1 2 3 3 1 1 1 1 1 1 1 3 3 1 1 3 3 1 1 3 3 1 : ; - - ; - - - - ; ; ; ; - - ; - < w ",
"d 9 ; - ; ; ; - ; ; - - ; ; ; - ; - - - - . - - - - - - - - - - - - - - - - - . - - ; ; - ; ; ; ; ; - ; ; ; - ; - ; 9 d ",
"d w < - ; - ; - ; ; ; ; - ; ; - - ; ; - - - - - - ; - ; - - - - - ; - - ; ; ; ; ; ; ; ; ; ; - - ; ; ; ; ; ; - - - < w d ",
"d d 0 : - - - - ; - ; ; ; ; - - - - - - - - - - - - - - - - ; ; ; - - - ; ; ; ; ; ; ; ; ; ; ; ; ; - ; - ; ; ; - : 0 d d ",
"d d d 7 ; ; ; ; ; ; ; ; ; ; ; ; - ; ; ; ; ; ; ; ; ; ; - - - - ; ; ; ; - - - ; ; ; ; ; ; - ; ; - ; ; ; ; ; ; - ; 7 d d d ",
"d d d a 7 ; ; ; ; ; ; ; - ; ; ; - - - ; ; ; ; - - ; ; ; - - - ; ; ; ; ; - - ; ; ; ; - - ; ; ; ; ; ; ; ; ; - ; 7 d d d d ",
"d d d d a 7 : - ; ; ; - ; - - ; - - - - ; ; ; - ; - - - - - - - ; ; ; - - - - - ; ; - ; - ; ; - ; ; ; - . : 7 a d d d d ",
"d d d d d d 9 > ; - ; ; - ; - ; ; - - - - - - ; ; ; ; ; - - - - ; ; ; ; ; - - - - - - - ; ; ; ; ; - - ; > 9 a d d d d d ",
"d d d d d d d w 7 > ; . . - - - - - - - - - - - - - - - - - - - - - - - - - - - - - - - - - - . . ; > 6 w d d d d d d d ",
"d d d d d d d d d w 9 5 > : : : : : : : : : : : : : : : : : : : : : : : : : : : : : : : : : : > 5 9 w d d d d d d d d d ",
"a d d d d N O.g s d d d w w 8 q q q q q q q q q q q q q q q q q q q q q q q q q q q q q q 8 w w a d d d g O.N d d d d a ",
"h d d d f o @ I s d d d d d d d d d d d d d d d d d d d d d d d d d d d d d d d d d d d d d d d d d d s I @ o f d d d h ",
"` s d d f O @ m s d d d d d s d d d d d d d d d d d d d d d s d d d d d d d d d d d d d d s d d d d d s m @ O f d d s ` ",
"{ s d d f O @ m e d d d d f L f d d d d d a K g d d d d d J J d d d d d g K a d d d d d f L f d d d d e m @ O f d d e { ",
"t.a d d f O @ m s d d d s B $ B r d d d s P # +.a d d d g o o g s d d a +.# P s d d d s B $ B e d d d e m @ O f d d a i.",
"C._ s d f O @ m s d d d s ..= X.r d d d e M * o f d d s K $ $ K s d d f o * M s d d d s X.= O.d d d d e m @ O f d s _ C.",
"U.| e d f O @ m s d d d d ..= X.s d d d e M * o f d d s K $ $ K s d d f o * M s d d d s X.= ..d d d d e m @ O f d e | U.",
"T.M.j r f O @ m s d d d r ..= X.s d d d e M * o f d d s K $ $ K s d d f X * M e d d d s X.= ..d d d d e m @ O f s j M.T.",
"T.T.w.e f O @ m s d d d r ..= X.s d d d s M * o f d d s K $ $ K s d d f X * M e d d d s X.= ..s d d d e m @ O f r w.U.T.",
"T.T.G.' f O @ m s d d d r ..= X.s d d d e M * o f d d s K $ $ K s d d f X * M e d d d s X.= ..s d d d e m @ O f ' G.T.T.",
"T.T.T.M.U o @ m s d d d r ..= X.s d d d s M * o f d d s K $ $ K s d d f X * M s d d d s X.= ..s d d d e m @ o U M.T.T.T.",
"T.T.T.T.v.% + m s d d d r ..= X.s d d d e M * o f d d s K $ $ K s d d f X * M e d d d s X.= ..s d d d e m + % v.T.T.T.T.",
"T.T.T.T.T.c.9.I e d d d r ..= X.s d d d e M * o f d d s K $ $ K s d d f X * M e d d d e X.= ..s d d d e m 9.c.T.T.T.T.T.",
"T.T.T.T.T.T.L.i._ e e d r ..= X.s d d d e M * o f d d s K $ $ K s d d f o * M e d d d e X.= ..s d e r _ i.L.T.T.T.T.T.T.",
"T.T.T.T.T.T.T.T.C.e.] h e ..& o.e e e e e M @ X a e e e J $ $ J e e e a X @ M e e e e e  .& ..e h ] e.C.T.T.T.T.T.T.T.T.",
"T.T.T.T.T.T.T.T.T.T.J.b.t.3.0.*.[ [ [ [ [ &.0.8.{ [ [ [ } 7.7.} [ [ [ { 8.0.&.[ [ [ [ [ *.0.3.t.b.J.T.T.T.T.T.T.T.T.T.T.",
"T.T.T.T.T.T.T.T.T.T.T.T.T.T.Y.T.U.U.I.I.U.U.Y.Y.U.U.I.U.U.Y.Y.U.U.I.I.U.Y.Y.U.U.U.U.U.U.T.Y.T.T.T.T.T.T.T.T.T.T.T.T.T.T.",
"T.T.T.T.T.T.T.T.T.T.T.T.T.T.T.T.T.T.T.T.T.T.T.T.T.T.T.T.T.T.T.T.T.T.T.T.T.T.T.T.T.T.T.T.T.T.T.T.T.T.T.T.T.T.T.T.T.T.T.T.",
"T.T.T.T.T.T.T.T.T.T.T.T.T.T.T.T.T.T.T.T.T.T.T.T.T.T.T.T.T.T.T.T.T.T.T.T.T.T.T.T.T.T.T.T.T.T.T.T.T.T.T.T.T.T.T.T.T.T.T.T.",
"T.T.T.T.T.T.T.T.T.T.T.T.T.T.T.T.T.T.T.T.T.T.T.T.T.T.T.T.T.T.T.T.T.T.T.T.T.T.T.T.T.T.T.T.T.T.T.T.T.T.T.T.T.T.T.T.T.T.T.T.",
"T.T.T.T.T.T.T.T.T.T.T.T.T.T.T.T.T.T.T.T.T.T.T.T.T.T.T.T.T.T.T.T.T.T.T.T.T.T.T.T.T.T.T.T.T.T.T.T.T.T.T.T.T.T.T.T.T.T.T.T.",
"T.T.T.T.T.T.T.T.T.T.T.T.T.T.T.T.T.T.T.T.T.T.T.T.T.T.T.T.T.T.T.T.T.T.T.T.T.T.T.T.T.T.T.T.T.T.T.T.T.T.T.T.T.T.T.T.T.T.T.T."
};
