/* XPM */
static char *p_2[] = {
/* columns rows colors chars-per-pixel */
"60 60 217 2 ",
"   c #020202",
".  c #0A0404",
"X  c #030309",
"o  c #090708",
"O  c #0C0B0B",
"+  c #050A07",
"@  c #110708",
"#  c #17150F",
"$  c #120D11",
"%  c #141213",
"&  c #1B171A",
"*  c #1D1C1C",
"=  c #171818",
"-  c #07191B",
";  c #231C1D",
":  c #2C1D1E",
">  c #231917",
",  c #2B1619",
"<  c #1A231D",
"1  c #15201A",
"2  c #23251E",
"3  c #382219",
"4  c #1E1E26",
"5  c #221F21",
"6  c #2A1C22",
"7  c #3D1F23",
"8  c #1C2323",
"9  c #1F3421",
"0  c #252324",
"q  c #2D2225",
"w  c #282728",
"e  c #362928",
"r  c #36382E",
"t  c #392834",
"y  c #393738",
"u  c #28322E",
"i  c #581C19",
"p  c #4E1D12",
"a  c #621C1D",
"s  c #781C1D",
"d  c #48251B",
"f  c #59251C",
"g  c #54221C",
"h  c #74231B",
"j  c #481E23",
"k  c #541D22",
"l  c #5F1E22",
"z  c #691D22",
"x  c #761B27",
"c  c #4A2A27",
"v  c #5C2321",
"b  c #512A29",
"n  c #443627",
"m  c #443534",
"M  c #423C3B",
"N  c #4B3C3C",
"B  c #493936",
"V  c #543838",
"C  c #4A2F38",
"Z  c #69262B",
"A  c #7F2121",
"S  c #374339",
"D  c #49433B",
"F  c #3E3E40",
"G  c #4A3A42",
"H  c #4A4442",
"J  c #474746",
"K  c #534244",
"L  c #5B4442",
"P  c #534B4B",
"I  c #554848",
"U  c #4D544C",
"Y  c #544C50",
"T  c #594E54",
"R  c #5A5555",
"E  c #585857",
"W  c #4F5151",
"Q  c #684B4C",
"!  c #6A524D",
"~  c #75514F",
"^  c #684E54",
"/  c #6C5354",
"(  c #6B5C5B",
")  c #65575A",
"_  c #755859",
"`  c #70474B",
"'  c #64625D",
"]  c #595860",
"[  c #645F68",
"{  c #765B64",
"}  c #5B6762",
"|  c #6A6463",
" . c #676767",
".. c #746967",
"X. c #747265",
"o. c #747372",
"O. c #7C7A7A",
"+. c #797C75",
"@. c #716D71",
"#. c #891D1C",
"$. c #9A1E17",
"%. c #B91E19",
"&. c #9D2217",
"*. c #B3241E",
"=. c #AD2515",
"-. c #8C1B23",
";. c #9E1D21",
":. c #991837",
">. c #A81D24",
",. c #B81D26",
"<. c #812224",
"1. c #982226",
"2. c #942432",
"3. c #A92429",
"4. c #B72226",
"5. c #C81D1C",
"6. c #D61E1D",
"7. c #D81D1B",
"8. c #E11D1D",
"9. c #CD241C",
"0. c #C8271D",
"q. c #D3231D",
"w. c #DB221D",
"e. c #D1281B",
"r. c #C71B28",
"t. c #D51D22",
"y. c #DB1D22",
"u. c #DE1F2D",
"i. c #E21D25",
"p. c #E5172B",
"a. c #C92525",
"s. c #D32323",
"d. c #DA2223",
"f. c #DB212A",
"g. c #D3222B",
"h. c #CE2632",
"j. c #E02128",
"k. c #87686A",
"l. c #8B6B71",
"z. c #857374",
"x. c #987678",
"c. c #946C6F",
"v. c #A67B79",
"b. c #7E817A",
"n. c #84857F",
"m. c #AA837F",
"M. c #A9887F",
"N. c #9E7B81",
"B. c #7F8B85",
"V. c #848583",
"C. c #8C8C8C",
"Z. c #888789",
"A. c #95958E",
"S. c #9C9B9C",
"D. c #969695",
"F. c #9B888A",
"G. c #A48485",
"H. c #A39A9D",
"J. c #BA928F",
"K. c #9CA39D",
"L. c #A1A29F",
"P. c #9A9EA1",
"I. c #A89CA2",
"U. c #9DAAA3",
"Y. c #A9A8A8",
"T. c #B7BABB",
"R. c #AEAAB0",
"E. c #CA8D8E",
"W. c #CE969B",
"Q. c #CC9B9D",
"!. c #C5979A",
"~. c #D49B9B",
"^. c #DB9C9E",
"/. c #D19796",
"(. c #CAA19B",
"). c #D1A19A",
"_. c #CC9CA1",
"`. c #DC9AA3",
"'. c #D59DA3",
"]. c #CDA1A4",
"[. c #D4A1A5",
"{. c #DBA1A3",
"}. c #DAA3AA",
"|. c #C4BDBD",
" X c #D4A6B0",
".X c #C0C3BC",
"XX c #BEB8C2",
"oX c #C3BFC0",
"OX c #BECAC5",
"+X c #C6C7C8",
"@X c #D9D8D9",
"#X c #CFD2D2",
"$X c #EAD7DD",
"%X c #DBE4DF",
"&X c #E3E3DF",
"*X c #E2DFE1",
"=X c #EBDFE1",
"-X c #DBEEE8",
";X c #E3E3E4",
":X c #E4EAE7",
">X c #E6E7EA",
",X c #EBEBEB",
"<X c #EAE6E7",
"1X c #E8F1ED",
"2X c #F5F2EE",
"3X c #F4EDF4",
"4X c #EDFEF9",
"5X c #EDF4F4",
"6X c #F3F3F3",
"7X c #FBF4F5",
"8X c #F5FAF6",
"9X c #FCFBF6",
"0X c #FDF6FC",
"qX c #F6FEFD",
"wX c #FFFFFF",
"eX c #F4F3F8",
"rX c #F1ECF3",
/* pixels */
"wXwXwXwXwXwXwXwXwXwXwXwXwXwXwXwXwXwXwXwXwXwX9XwXwXwXwXwXwXwXwXwXwXwXwXwXwXwXwXwXwXwXwXwXwXwXwXwXwXwXwXwXwXwXwXwXwXwXwXwX",
"wXwXwXwXwXwXwXwXwXwXwXwXwXwXwXwXwXwXwXwXqXwXwXwXwX9XwXwXwXwX0XwXwXwXwXwXwXwXwXwXwXwXwXwXwXwXwXwXwXwXwXwXwXwXwXwXwXwXwXwX",
"wXwXwXwXwXwXwXwXwXwXwXwXwXwXwXwXwXwXwXwXwXwXwX*XS.S.T.>X9XwXwXwX9XwXwXwXwXwXwXwXwXwXwXwXwXwXwXwXwXwXwXwXwXwXwXwXwXwXwXwX",
"wXwXwXwXwXwXwXwXwXwXwXwXwXwXwXwXwXwXwXwXwXwXY.y * * 0 F Z.>XwXwXwX9XwXwXwXwXwXwXwXwXwXwXwXwXwXwXwXwXwXwXwXwXwXwXwXwXwXwX",
"wXwXwXwXwXwXwXwXwXwXwXwXwXwXwXwXwXwXwXwXwX@Xy * 0 * & ; ; o.wXwXwXwXwX9XwXwXwXwXwXwXwXwXwXwXwXwXwXwXwXwXwXwXwXwXwXwXwXwX",
"wXwXwXwXwXwXwXwXwXwXwXwXwXwXwXwXwXwXwXwXwXV.; ; & e / L : M :XwXwXwXwX9XwXwXwXwXwXwXwXwXwXwXwXwXwXwXwXwXwXwXwXwXwXwXwXwX",
"wXwXwXwXwXwXwXwXwXwXwXwXwXwXwXwXwXwXwXwX9XE q : e G.!.[.k.M ,XwX9XwXwXwXwXwXwXwXwXwXwXwXwXwXwXwXwXwXwXwXwXwXwXwXwXwXwXwX",
"wXwXwXwXwXwXwXwXwXwXwXwXwXwXwXwXwXwXwXwX7XP | / ~ Q.{.^.x.^ 2XwXwXwXwXwXwXwXwXwXwXwXwXwXwXwXwXwXwXwXwXwXwXwXwXwXwXwXwXwX",
"wXwXwXwXwXwXwXwXwXwXwXwXwXwXqXwXwX9XwXqX7XU v.~./.(.~.~.^ Z.wXwXqXqXwXwXwXwXwXwXwXwXwXwXwXwXwXwXwXwXwXwXwXwXwXwXwXwXwXwX",
"wXwXwXwXwXwXwXwXwXwXwXwX4XqXwX4XwX0XqXwX5X} l.`.[.(.^.E.H OXwX9XwXwX9XwXwXwXwXwXwXwXwXwXwXwXwXwXwXwXwXwXwXwXwXwXwXwXwXwX",
"wXwXwXwXwXwXwXwXwXwXwXwXwXwXwXwXwX+XA.X. .t B E.).(.}.{ ' ,XwXwX9XwXwXqXwXwXwXwXwXwXwXwXwXwXwXwXwXwXwXwXwXwXwXwXwXwXwXwX",
"wXwXwXwXwXwXwXwXwXwXwXwXwXwX8XwXD.c s h #.z 2 V m.).m.M |.wXwX8XwXwXwXwXwXwXwXwXwXwXwXwXwXwXwXwXwXwXwXwXwXwXwXwXwXwXwXwX",
"wXwXwXwXwXwXwXwXwXwXwXwXwXwX0Xn.g ,.g.t.w.r.3 Y G L e ( ,XwXwXwXwXwXwXwXwXwXwXwXwXwXwXwXwXwXwXwXwXwXwXwXwXwXwXwXwXwXwXwX",
"wXwXwXwXwXwXwXwXwXwXwXwXwX8Xb.p 4.d.e.y.9.h.Z Q N./ e q +.1XqXwXwXwXwXwXwXwXwXwXwXwXwXwXwXwXwXwXwXwXwXwXwXwXwXwXwXwXwXwX",
"wXwXwXwXwXwXwXwXwXwXwXwXqXA.d 3.y.9.0.d.e.y.,.z n n A ,.a X.4X0XwXwXwXwXwXwXwXwXwXwXwXwXwXwXwXwXwXwXwXwXwXwXwXwXwXwXwXwX",
"wXwXwXwXwXwXwXwXwXwXwXwX+Xc >.i.6.s.t.y.t.q.y.a.%.r.6.e.r.v K.wXwX8XwXwXwXwXwXwXwXwXwXwXwXwXwXwXwXwXwXwXwXwXwXwXwXwXwXwX",
"wXwXwXwXwXwXwXwXqXwXwX6X| s i.w.y.#.1.d.e.d.y.s.w.w.4.r.q.$.I rXqXwXwX9XwXwXwXwXwXwX9XwXwXwXwXwXwXwXwXwXwXwXwXwXwXwXwXwX",
"wXwXwXwX9XwXwXwXwXwX@Xo.w s f.r.z 9 s w.q.s.t.s.d.s.&.f g.s.v T.wXwXwXwXwXwXwXwXwXwXwX9XwXwXwXwXwXwXwXwXwXwXwXwXwXwXwXwX",
"wXwXwXwXwXqXwXwXwXT.H _ x.n s l  .Z.v 8.w.s.s.s.s.f.,.d #.6.#. .wXwXwXwX9X9XwXwXwX9XwXwXwXwXwXwXwXwXwXwXwXwXwXwXwXwXwXwX",
"wXwXwXwX8XqXwXwX|.D l.'.^.v.e @.1X+Xb a.w.y.d.s.0.j.p.1.c 9.a.j U.wXqX9XwXwXwXwXwXwXwXwXwXwXwXwXwXwXwXwXwXwXwXwXwXwXwXwX",
"wXwXwXwXwXwXwX@XH k.[.^.`._ T >XwXrXU ;.s.6.d.d.9.9.d.*.j 5.t.Z y H.wX9XwXwXwX9XwXwXwXwXwXwXwXwXwXwXwXwXwXwXwXwXwXwXwXwX",
"wXwXwXwXwXwX:XE / }.~.J.{ D #XwXwX0XO.s d.s.s.w.6.q.q.9.k 1.#.c k.V L.wXwX9XwXwXwXwXwXwXwXwXwXwXwXwXwXwXwXwXwXwXwXwXwXwX",
"wXwXwXwXwX@XR ! !.Q.c.m  .#XwX7XwXqXY.f d.s.q.6.6.d.d.8.v d b x.'.v.B H.8XwX8XwXwXwXwXwXwXwXwXwXwXwXwXwXwXwXwXwXwXwXwXwX",
"wXwXwXwXOXJ _ W.J.L R R.2XwXqXwXwXwX+Xc 5.0.8.y.s.s.a.t.s < / W.`.).M.G D.wXwXwXwXwXwXwXwXwXwXwXwXwXwXwXwXwXwXwXwXwXwXwX",
"wXwXwX@XD l.Q.!.L +.:XwXwXwXwXwXwXwX*XM *.i.d.0.w.6.t.y.$.S W ! J.'.].v.N D.wXwXwXwXwXwXwXwXwXwXwXwXwXwXwXwXwXwXwXwXwXwX",
"wXwX9XC.! ]._._ ( 2XwXwXwXwXwXwXwXwX,XP =.y.t.9.w.w.q.q.,.B XX..D x. X`.G.K L.wXwXwXwXwXwXwXwXwXwXwXwXwXwXwXwXwXwXwXwXwX",
"wXwX8XW v.!./ m Y.wXwX9XwXwXwXwXwXwX7XR $.d.f.s.y.t.t.t.h.k I.eXS.H P v.[.x.K R.wXwXwXwXwXwXwXwXwXwXwXwXwXwXwXwXwXwXwXwX",
"wXwX9X .` N.m T.wXwX9XwXwXwXwXwXwX9XwX) &.f.r.>.<.f f v i 3 ] 5XwX,XZ.V v.[.x.B +XwXwXwXwXwXwXwXwXwXwXwXwXwXwXwXwXwXwXwX",
"wXwXwX+Xz.H O.6XwXwXwXwXwXwXwXwXwXwXwX) #.<.3 # % O @ + @ + w +XwX7XqXS.L [.W.k.' 1XwXwXwXwXwXwXwXwXwXwXwXwXwXwXwXwXwXwX",
"wXwXwXwXwX,X8XwX9X9XwXwXwXwXwXwXwXwX9XE ; > o X           X $ ( 7XwXqXT.r l.!.l.P 1XwX9XwXwXwXwXwXwXwXwXwXwXwXwXwXwXwXwX",
"wXwXwXwXwXwXwXwXwXwXwXwXwXwXwX9XwXwX0XO.-   X X       $ O   o & Z.9XwX;Xn.P K K H.9XwXwXwXwXwXwXwXwXwXwXwXwXwXwXwXwXwXwX",
"wXwXwXwXwXwX9XwX9X9XwXwXwXwXwXwXwX9XwXoXq .           $ #     X u +X0XqXwX1XOX@XwXwXwX9XwXwXwXwXwXwXwXwXwXwXwXwXwXwXwXwX",
"wXwXwXwXwXwXwXwXwXwXwXwXwXwXwXwXwXwXwXwXz.% .       @   # O     + U :XwXwXwXwXwXwXwXwXwXwXwXwXwXwXwXwXwXwXwXwXwXwXwXwXwX",
"wXwXwXwXwXwXwXwXwXwXwXwXwXwXwXwXwXwXwXwX:X .>           o ; O   O ; D.wXwXwXwXwXwXwXwXwXwXwXwXwXwXwXwXwXwXwXwXwXwXwXwXwX",
"wXwXwXwXwXwXwXwXwXwXwXwXwXwXwXwXwXwXwXwXwX-X .%     + O : e > & N _ K @XwXwXwXwXwXwXwXwXwXwXwXwXwXwXwXwXwXwXwXwXwXwXwXwX",
"wXwXwXwXwXwXwXwXwXwXwXwXwXwXwXwXwXwXwXwXwXwX>X| % . : ^ x.J.{ m G.[.Q A.wXwXwXwXwXwXwXwXwXwXwXwXwXwXwXwXwXwXwXwXwXwXwXwX",
"wXwXwXwXwXwXwXwXwXwXwXwXwXwXwXwXwXwXwXwXwXwXwX%XI u x._.Q.W.!.V v.}.c.E 6X9XwXwXwXwXwXwXwXwXwXwXwXwXwXwXwXwXwXwXwXwXwXwX",
"wXwXwXwXwXwXwXwXwXwXwXwXwXwXwXwXwXwXwXwXwX+XC.T.Y.r G.`.{.`.[.~ ~ [.x.I ,X9XwXwXwXwXwXwXwXwXwXwXwXwXwXwXwXwXwXwXwXwXwXwX",
"wXwXwXwXwXwXwXwXwXwXwXwXwXwXwXwXwXwXwXwX+Xy q 0 e k ! ~./.'.].G.V ..H C.9XwXwXwXwXwXwXwXwXwXwXwXwXwXwXwXwXwXwXwXwXwXwXwX",
"wXwXwXwXwXwXwXwXwXwXwXwXwXwXwXwXwXwXwXwXI.0 * : 7 :.n m.{.!.c.^ e W T.wXwXwXwXwXwXwXwXwXwXwXwXwXwXwXwXwXwXwXwXwXwXwXwXwX",
"wXwXwXwXwXwXwXwXwXwXwXwXwXwXwXwXwXwXwXwX&XC 0 > , 2.z _ v.G p s t K.9X9XwXwXwXwXwXwXwXwXwXwXwXwXwXwXwXwXwXwXwXwXwXwXqXwX",
"wXwXwXwXwXwXwXwXwXwXwXwXwXwXwXwXwXwXwXwX:XY = 0 > i c e e -.a.u.-.( qXwX9XwXwXwX9XwXwXwX9XwXwXwXwXwXwXwX9XwXwX9XwX9XwXwX",
"wXwXwXwXwXwXwXwXwXwXwXwXwXwXwXwXwXwXwXwX8XJ 4 5 * w V.o.7 y.t.7.0.V @XwXwXwXwXwXwXwXwXwXwXwX9XwXwXqXwXwXwXwXwXwXwXwXwXwX",
"wXwXwXwXwXwXwXwXwXwXwXwXwXwXwXwXwXwXwXwX&Xy 6 & ; } wX@XB =.6.9.q.i D.wXwXwXwXwXwXwXwXwXwXwXwXwXwXwXwX9XwX8XwXwXwX9XwXwX",
"wXwXwXwXwXwXwXwXwXwXwXwXwXwXwXwXwXwXwXwX|.; 6 0 6 Y.0XwXD.p t.i.d.3.I =X9XwXwXwXwXwXwXwXwXwXwXwX9X,X:X9XwXwXwXwXwXwX9XwX",
"wXwXwXwXwXwXwXwXwXwXwXwXwXwXwXwXwXwXwXwX .* ; 1 H >XwXwXrX[ h t.a.s.i P.wXwXwXwX9XwXwXwXwXwX6XT. .H H E S.6XwXwXwXwXwXwX",
"wXwXwXwXwXwXwXwXwXwXwXwXwXwXwXwXwXwXwXwXC.0 * < Z.wXwXwXwX#XD ;.s.6.>.J ;XwX9XwXwXwXwXwXwX6XO.0 $ o   % *  .,X9XwXwX9XwX",
"wXwXwXwXwXwXwXwXwXwXwXwXwXwXwXwXwXwXwXwXZ.* ; ) *XwXwX9X9XwXR.g %.s.i.i Z.wXwXwXwXwXwXwXwXD.* 0 o   o   o = o.wXwXwXwX9X",
"wXwXwXwXwXwXwXwXwXwXwXwXwXwXwXwXwXwXwXwX;XD.C.@XwXwXwXwXwXwXwXB.k h.y.=.b .XwXwXwXwXwXwX@Xy 0 & O         o u +XwXwX9XwX",
"wXwXwXwXwXwXwXwXwXwXwXwXwXwXwXwXwXwXwXwXwXwXwXwXwXwXwXwXwXwXwX4XX.a 4.u.x Q -XqXqXwXwXqXR.* O X   o O * =   % S.wX9XwXwX",
"wXwXwXwXwXwXwXwXwXwXwXwXwXwXwXwXwXwXwXwX9XwXwXwXwXwXwXwXwXwXwXwX>XX.c z k > } >XwXwXwXwXI.% X       & & ; o O V.9XwXwXwX",
"wXwXwXwXwXwXwXwXwXwXwXwXwXwXwXwXwXwXwXwXwXwXwX9XwXwXwX9XwXwXwXwXwX@Xw * < < 5 { $XwXwXwXY.=     o   & 0 %   % C.wXwXwXwX",
"wXwXwXwXwXwXwXwXwXwXwXwXwXwXwXwXwXwXwXwX9XwXwXwXwXwXwXwXqX9XwXqXqX<XY 6 : * 8 5 T +XwXwX@Xy % %     o o o o 0 +XwX8XwXwX",
"wXwXwXwXwXwXwXwXwXwXwXwXwXwXwXwXwXwXwXwXwXwXwXwXwXwXwXwXwXwX0XwXwXwXo.= : q 8 = ; y OXwXwXV.* 5 O     X   %  .6X9XwXwX9X",
"wXwXwXwXwXwXwXwXwXwXwXwXwXwXwXwXwXwXwXwXqXwXwXwX9XwXwXwXwXwXqXwX7XwXY.2 = ; ; 0 > ; Y.wX9X,Xo.0 % o o o = E ;XwXwX9XwXwX",
"wXwXwXwXwXwXwXwXwXwXwXwXwXwXwXwXwXwXwXwXwXwXwXwXwXwX9XwX9XwXwXwXwXwXrXB.o...[ W M | T.wXwXwX6XS.W y y Y D.>XwXwXwXwX9XwX",
"wXwXwXwXwXwXwXwXwXwXwXwXwXwXwXwXwXwXwXwXwXwXwXwXwXwXwXwXwXwXwXwXwXwXwXwXwXwX9X:X;X8XwXwXwXwXwXwX6X;X;X6XwXwXwXwXwXwXwXwX",
"wXwXwXwXwXwXwXwXwXwXwXwXwXwXwXwXwXwXwXwXwXwXwXwXwXwXwXwXwXwXwXwXwXwXwXwXwXwXwXwXwXwXwXwXwXwXwXwXwXwXwXwXwXwXwXwXwXwXwXwX",
"wXwXwXwXwXwXwXwXwXwXwXwXwXwXwXwXwXwXwXwXwXwXwXwXwXwXwXwXwXwXwXwXwXwXwXwXwXwXwXwXwXwXwXwXwXwXwXwXwXwXwXwXwXwXwXwXwXwXwXwX",
"wXwXwXwXwXwXwXwXwXwXwXwXwXwXwXwXwXwXwXwXwXwXwXwXwXwXwXwXwXwXwXwXwXwXwXwXwXwXwXwXwXwXwXwXwXwXwXwXwXwXwXwXwXwXwXwXwXwXwXwX"
};
