/* XPM */
static char *enemy[] = {
/* columns rows colors chars-per-pixel */
"60 60 142 2 ",
"   c #010101",
".  c #0B0304",
"X  c #0F0A03",
"o  c #0C0B0A",
"O  c #120407",
"+  c #100C04",
"@  c #170508",
"#  c #1A0609",
"$  c #110E0D",
"%  c #191205",
"&  c #13100E",
"*  c #100F10",
"=  c #141212",
"-  c #1D1916",
";  c #1B1A1A",
":  c #27080E",
">  c #29090E",
",  c #2A1F07",
"<  c #2D0A10",
"1  c #360C13",
"2  c #3C0E15",
"3  c #211C19",
"4  c #2D2209",
"5  c #26221E",
"6  c #1F1F20",
"7  c #232323",
"8  c #2C2622",
"9  c #332C27",
"0  c #332D28",
"q  c #3B342E",
"w  c #333333",
"e  c #3E3731",
"r  c #3A3A3B",
"t  c #52131E",
"y  c #533E0F",
"u  c #523E10",
"i  c #5C1621",
"p  c #611723",
"a  c #631824",
"s  c #6D1B27",
"d  c #761D2A",
"f  c #453D36",
"g  c #574210",
"h  c #5F4811",
"j  c #7D6015",
"k  c #4B4139",
"l  c #444444",
"z  c #4B4B4C",
"x  c #564C42",
"c  c #5B5046",
"v  c #5E5348",
"b  c #545354",
"n  c #5C5C5C",
"m  c #61564B",
"M  c #675B4F",
"N  c #685D50",
"B  c #6E6255",
"V  c #726557",
"C  c #736658",
"Z  c #76695B",
"A  c #786B5D",
"S  c #5F5F60",
"D  c #605F60",
"F  c #626162",
"G  c #6F6E6F",
"H  c #7F7162",
"J  c #717171",
"K  c #7D7D7D",
"L  c #801F2E",
"P  c #872030",
"I  c #8A2132",
"U  c #9D2639",
"Y  c #932335",
"T  c #A1263A",
"R  c #A4283B",
"E  c #AC293D",
"W  c #B02A3F",
"Q  c #846517",
"!  c #906F17",
"~  c #B42B41",
"^  c #BE2C44",
"/  c #C52E45",
"(  c #C82E47",
")  c #C82F48",
"_  c #D3314A",
"`  c #DA334E",
"'  c #E1344F",
"]  c #E53551",
"[  c #EA3653",
"{  c #F13755",
"}  c #F53856",
"|  c #F83957",
" . c #F93958",
".. c #827464",
"X. c #877868",
"o. c #8C7D6D",
"O. c #DEAB21",
"+. c #EBB523",
"@. c #FFC624",
"#. c #8F8070",
"$. c #918170",
"%. c #9B8A77",
"&. c #9F8D7A",
"*. c #A08E7B",
"=. c #A4927E",
"-. c #818181",
";. c #949494",
":. c #9B9B9B",
">. c #A69480",
",. c #A89581",
"<. c #AC9983",
"1. c #A09F9F",
"2. c #B5A18B",
"3. c #BAA68F",
"4. c #BBA790",
"5. c #BFAA93",
"6. c #A09FA0",
"7. c #A1A1A1",
"8. c #ADADAD",
"9. c #B4B3B4",
"0. c #BABABA",
"q. c #C0AB94",
"w. c #C6B097",
"e. c #C7B199",
"r. c #C9B39A",
"t. c #C5C5C5",
"y. c #CCCCCC",
"u. c #D4D4D4",
"i. c #D9D9D9",
"p. c #E3E3E3",
"a. c #E6E6E6",
"s. c #EBEBEB",
"d. c #EFEFEF",
"f. c #EDEDED",
"g. c #F7F7F7",
"h. c #F4F4F4",
"j. c #FDFDFD",
"k. c #FCFCFC",
"l. c #FEFEFE",
"z. c #FFFFFF",
"x. c #FFFFFE",
"c. c #FFFFFF",
/* pixels */
"z.z.z.z.z.z.z.z.y.;                                                           -.z.z.z.z.z.z.z.z.z.z.z.z.z.z.z.z.z.z.z.z.",
"z.z.z.z.z.z.z.z.9.. X , %   O > > > > > > > > > : > > > > > > : > > > > > #   n z.z.z.z.z.z.z.z.z.z.z.z.z.z.z.z.z.z.z.z.",
"z.z.z.z.z.z.z.z.9.  g +.Q   s ] ' ' ' ' ' ' ' ' ' ' ' ' ' ' ' ' ' ' ' ' ] U   n z.z.z.z.z.z.z.z.z.z.z.z.z.z.z.z.z.z.z.z.",
"z.z.z.z.z.z.z.z.9.  h @.!   i ( ( ( ( ( ( ( ( ( ( ( ( ( ( ( ( ( ( ( ( ( ( I   n z.z.z.z.z.z.z.z.z.z.z.z.z.z.z.z.z.z.z.z.",
"z.z.z.z.z.z.z.z.9.  h @.!   . . . . . . . . . . . . . . . . . . . . . . . .   n z.z.z.z.z.z.z.z.z.z.z.z.z.z.z.z.z.z.z.z.",
"z.z.z.z.z.z.z.z.9.  h @.!   # 2 2 2 2 2 2 2 2 2 2 2 2 2 2 2 2 2 2 2 2 2 2 >   n z.z.z.z.z.z.z.z.z.z.z.z.z.z.z.z.z.z.z.z.",
"z.z.z.z.z.z.z.z.9.  h @.!   d [ [ [ [ [ [ [ [ [ [ [ [ [ [ [ [ [ [ [ [ [ [ R   n z.z.z.z.z.z.z.z.z.z.z.z.z.z.z.z.z.z.z.z.",
"z.z.z.z.z.z.z.z.9.  h @.!   d  .| | | | | | | | | | | | | | | | | | | | | E   S z.z.z.z.z.z.z.z.z.z.z.z.z.z.z.z.z.z.z.z.",
"z.z.z.z.z.z.z.z.9.  h @.!   d | | | | | | | | | | | | | | | | | | | | |  .E   S z.z.z.z.z.z.z.z.z.z.z.z.z.z.z.z.z.z.z.z.",
"z.z.z.z.z.z.z.z.9.  h @.!   d | | | | | | | | | | | | | | | | | | | | |  .E   S z.z.z.z.z.z.z.z.z.z.z.z.z.z.z.z.z.z.z.z.",
"z.z.z.z.z.z.z.z.9.  h @.!   d | | | | | | | | | | | | | | | | | | | | |  .E   S z.z.z.z.z.z.z.z.z.z.z.z.z.z.z.z.z.z.z.z.",
"z.z.z.z.z.z.z.z.9.  h @.!   d | | | | | | | | | | | | | | | | | | | | |  .E   n z.z.z.z.z.z.z.z.z.z.z.z.z.z.z.z.z.z.z.z.",
"z.z.z.z.z.z.z.z.9.  h @.!   d | | | | | | | | | | | | | | | | | | | | |  .E   D z.z.z.z.z.z.z.z.z.z.z.z.z.z.z.z.z.z.z.z.",
"z.z.z.z.z.z.z.z.9.  h @.!   d | | | | | | | | | | | | | | | | | | | | |  .E   F z.z.z.z.z.z.z.z.z.z.z.z.z.z.z.z.z.z.z.z.",
"z.z.z.z.z.z.z.z.9.  h @.!   d | | | | | | | | | | | | | | | | | | | | |  .E   F z.z.z.z.z.z.z.z.z.z.z.z.z.z.z.z.z.z.z.z.",
"z.z.z.z.z.z.z.z.9.  h @.!   d | | | | | | | | | | | | | | | | | | | | |  .E   F z.z.z.z.z.z.z.z.z.z.z.z.z.z.z.z.z.z.z.z.",
"z.z.z.z.z.z.z.z.9.  h @.!   d | | | | | | | | | | | | | | | | | | | | |  .E   D z.z.z.z.z.z.z.z.z.z.z.z.z.z.z.z.z.z.z.z.",
"z.z.z.z.z.z.z.z.9.  h @.!   d | | | | | | | | | | | | | | | | | | | | |  .E   S z.z.z.z.z.z.z.z.z.z.z.z.z.z.z.z.z.z.z.z.",
"z.z.z.z.z.z.z.z.9.  h @.!   d | | | | | | | | | | | | | | | | | | | | |  .E   n z.z.z.z.z.z.z.z.z.z.z.z.z.z.z.z.z.z.z.z.",
"z.z.z.z.z.z.z.z.9.  h @.!   d | | | | | | | | | | | | | | | | | | | | |  .E   n z.z.z.z.z.z.z.z.z.z.z.z.z.z.z.z.z.z.z.z.",
"z.z.z.z.z.z.z.z.9.  h @.!   d | | | | | | | | | | | | | | | | | | | | |  .E   n z.z.z.z.z.z.z.z.z.z.z.z.z.z.z.z.z.z.z.z.",
"z.z.z.z.z.z.z.z.9.  h @.!   d | | | | | | | | | | | | | | | | | | | | |  .E . 7 n n n n 0.z.z.z.z.z.z.z.z.z.z.z.z.z.z.z.",
"z.z.z.z.z.z.z.z.9.  h @.!   d | | | | | | | | | | | | | | | | | | | | |  .E .           7 t.z.z.z.z.z.z.z.z.z.z.z.z.z.z.",
"z.z.z.z.z.z.z.z.9.  h @.!   d | | | | | | | | | | | | | | | | | | | | |  .E . 9 #.$.#.f   w u.z.z.z.z.z.z.z.z.z.z.z.z.z.",
"z.z.z.z.z.z.z.z.9.  h @.!   d | | | | | | | | | | | { [ [ [ [ { | | | |  .E   f r.r.r.2.q   l p.z.z.z.z.z.z.z.z.z.z.z.z.",
"z.z.z.z.z.z.z.z.9.  h @.!   d  .| | | | | | | | | [ d 1 1 1 1 d [ | | |  .E   f e.e.e.r.,.8   n d.z.z.z.z.z.z.z.z.z.z.z.",
"z.z.z.z.z.z.z.z.9.  g +.Q   d | | | | | | | | | | ^ O   o o   . W  .| |  .E   f e.e.e.e.r.&.-   G h.z.z.z.z.z.z.z.z.z.z.",
"z.z.z.z.z.z.z.z.9.. + 4 %   d | | | | | | | | | [ i   v =.>.M   t [ | |  .E   e 2.w.e.e.e.r.o.& . -.z.z.z.z.z.z.z.z.z.z.",
"z.z.z.z.z.z.z.z.9.. . % X   d | | | | | | | |  .^ O - <.r.r.2.5 . W  .|  .E . o 3 Z e.e.e.e.r.H o o :.z.z.z.z.z.z.z.z.z.",
"z.z.z.z.z.z.z.z.9.  y O.j   d | | | | | | | | | p   N r.e.e.r.C   t { | | E . o . & %.r.e.e.e.e.B . ; y.z.z.z.z.z.z.z.z.",
"z.z.z.z.z.z.z.z.9.  u O.j   a _ _ _ _ _ _ _ _ ) 1 o %.r.e.e.r.=.o > ( _ _ Y   b K   q 3.r.e.e.r.q.q   9.z.z.z.z.z.z.z.z.",
"z.z.z.z.z.z.z.z.9.  . % X   . # @ @ @ @ # # # @ . o *.r.e.e.r.,.& . @ # # O   n s.l   A r.e.e.e.e.k   9.z.z.z.z.z.z.z.z.",
"z.z.z.z.z.z.z.z.i.z w w 6   @ < > > > > > > > > . o &.r.e.e.r.,.& . > > < #   n z.;.  c r.e.e.e.e.k   9.z.z.z.z.z.z.z.z.",
"z.z.z.z.z.z.z.z.z.h.d.h.;.  d ] ] ] ] ] ] ] ] ` 2 o &.r.e.e.r.,.& < _ ] [ T   n z.6.  c r.e.e.e.e.k   9.z.z.z.z.z.z.z.z.",
"z.z.z.z.z.z.z.z.z.z.z.z.:.  i / ^ ^ ^ ^ ^ ^ / ~ < o &.r.e.e.r.,.& : ~ / / P   n z.1.  c r.e.e.e.e.k   9.z.z.z.z.z.z.z.z.",
"z.z.z.z.z.z.z.z.z.z.z.z.:.    . . . . . . . . .   o *.r.e.e.r.,.&   . . . .   n z.:.  c r.e.e.e.e.k   9.z.z.z.z.z.z.z.z.",
"z.z.z.z.z.z.z.z.z.z.z.z.u.n z z z z z z z z z z = o &.r.e.e.r.,.$ * l z z z z 8.z.6.  c r.e.e.e.e.k   9.z.z.z.z.z.z.z.z.",
"z.z.z.z.z.z.z.z.z.z.z.z.z.k.g.g.g.g.g.g.g.g.g.h.l . &.r.e.e.r.,.$ w d.g.g.g.g.z.z.:.  c r.e.e.e.e.k   9.z.z.z.z.z.z.z.z.",
"z.z.z.z.z.z.z.z.z.z.z.z.z.z.z.z.z.z.z.z.z.z.z.h.l . &.r.e.e.r.>.$ w h.z.z.z.z.h.8.r   v r.e.e.e.e.k   9.z.z.z.z.z.z.z.z.",
"z.z.z.z.z.z.z.z.z.z.z.z.z.z.z.z.z.z.z.z.z.z.z.h.l . &.r.e.e.r.,.$ o J u.z.h.8.l .   0 %.r.e.e.e.e.k   9.z.z.z.z.z.z.z.z.",
"z.z.z.z.z.z.z.z.z.z.z.z.z.z.z.z.z.z.z.z.z.z.z.h.l . &.r.e.e.r.q.m &   ; F l .   9 ..4.r.e.e.e.e.e.k   9.z.z.z.z.z.z.z.z.",
"z.z.z.z.z.z.z.z.z.z.z.z.z.z.z.z.z.z.z.z.z.z.z.h.l . &.r.e.e.e.r.w.=.x &     9 ..4.r.r.e.e.e.e.e.e.k   9.z.z.z.z.z.z.z.z.",
"z.z.z.z.z.z.z.z.z.z.z.z.z.z.z.z.z.z.z.z.z.z.z.h.l . *.r.e.e.e.e.e.r.e.*.N ..3.r.r.e.e.e.e.e.e.r.=.3 . 0.z.z.z.z.z.z.z.z.",
"z.z.z.z.z.z.z.z.z.z.z.z.z.z.z.z.z.z.z.z.z.z.z.g.z   X.r.e.e.e.e.e.e.e.r.r.r.r.e.e.e.e.e.e.e.r.>.8   n d.z.z.z.z.z.z.z.z.",
"z.z.z.z.z.z.z.z.z.z.z.z.z.z.z.z.z.z.z.z.z.z.z.z.;.  q 5.r.e.e.e.e.e.e.e.e.e.e.e.e.e.e.e.e.r.>.8   n s.z.z.z.z.z.z.z.z.z.",
"z.z.z.z.z.z.z.z.z.z.z.z.z.z.z.z.z.z.z.z.z.z.z.z.p.w . o.r.e.e.e.e.e.e.e.e.e.e.e.e.e.e.e.r.>.8   n s.z.z.z.z.z.z.z.z.z.z.",
"z.z.z.z.z.z.z.z.z.z.z.z.z.z.z.z.z.z.z.z.z.z.z.z.z.;.  q 5.r.e.e.e.e.e.e.e.e.e.e.e.e.e.r.>.8   n s.z.z.z.z.z.z.z.z.z.z.z.",
"z.z.z.z.z.z.z.z.z.z.z.z.z.z.z.z.z.z.z.z.z.z.z.z.z.s.w . o.r.e.e.e.e.e.e.e.e.e.e.e.e.r.=.8   n d.z.z.z.z.z.z.z.z.z.z.z.z.",
"z.z.z.z.z.z.z.z.z.z.z.z.z.z.z.z.z.z.z.z.z.z.z.z.z.z.;.  q 5.r.e.e.e.e.e.e.e.e.e.e.r.<.8   n s.z.z.z.z.z.z.z.z.z.z.z.z.z.",
"z.z.z.z.z.z.z.z.z.z.z.z.z.z.z.z.z.z.z.z.z.z.z.z.z.z.p.7 = <.r.e.e.e.e.e.e.e.e.e.e.r.Z   z s.z.z.z.z.z.z.z.z.z.z.z.z.z.z.",
"z.z.z.z.z.z.z.z.z.z.z.z.z.z.z.z.z.z.z.z.z.z.z.z.z.z.h.w $ <.r.e.e.e.e.e.e.e.e.e.e.r.V   -.z.z.z.z.z.z.z.z.z.z.z.z.z.z.z.",
"z.z.z.z.z.z.z.z.z.z.z.z.z.z.z.z.z.z.z.z.z.z.z.z.z.z.d.w & <.r.e.e.e.e.e.e.e.e.e.e.r.V   -.z.z.z.z.z.z.z.z.z.z.z.z.z.z.z.",
"z.z.z.z.z.z.z.z.z.z.z.z.z.z.z.z.z.z.z.z.z.z.z.z.z.z.d.w & <.r.e.e.e.e.e.e.e.e.e.e.r.V   -.z.z.z.z.z.z.z.z.z.z.z.z.z.z.z.",
"z.z.z.z.z.z.z.z.z.z.z.z.z.z.z.z.z.z.z.z.z.z.z.z.z.z.d.w & <.r.e.e.e.e.e.e.e.e.e.e.r.V   -.z.z.z.z.z.z.z.z.z.z.z.z.z.z.z.",
"z.z.z.z.z.z.z.z.z.z.z.z.z.z.z.z.z.z.z.z.z.z.z.z.z.z.d.w & <.r.e.e.e.e.e.e.e.e.e.e.r.V   -.z.z.z.z.z.z.z.z.z.z.z.z.z.z.z.",
"z.z.z.z.z.z.z.z.z.z.z.z.z.z.z.z.z.z.z.z.z.z.z.z.z.z.d.w $ <.r.e.e.e.e.e.e.e.e.e.e.r.V   -.z.z.z.z.z.z.z.z.z.z.z.z.z.z.z.",
"z.z.z.z.z.z.z.z.z.z.z.z.z.z.z.z.z.z.z.z.z.z.z.z.z.z.d.w & <.r.r.r.r.r.r.r.r.r.r.r.r.C   -.z.z.z.z.z.z.z.z.z.z.z.z.z.z.z.",
"z.z.z.z.z.z.z.z.z.z.z.z.z.z.z.z.z.z.z.z.z.z.z.z.z.z.d.w $ %.2.2.2.2.2.2.2.2.2.2.2.2.M   -.z.z.z.z.z.z.z.z.z.z.z.z.z.z.z.",
"z.z.z.z.z.z.z.z.z.z.z.z.z.z.z.z.z.z.z.z.z.z.z.z.z.z.d.w   - 3 3 3 3 3 3 3 3 3 3 3 3 &   -.z.z.z.z.z.z.z.z.z.z.z.z.z.z.z.",
"z.z.z.z.z.z.z.z.z.z.z.z.z.z.z.z.z.z.z.z.z.z.z.z.z.z.h.b                               o 7.z.z.z.z.z.z.z.z.z.z.z.z.z.z.z."
};
